<svg width="32" height="32" viewBox="0 0 32 32" fill="none" xmlns="http://www.w3.org/2000/svg">
<path d="M5.8531 22.2021C6.1871 22.0351 6.8351 21.7121 6.8351 20.5611C6.8351 19.7351 6.3331 18.5061 4.3681 18.5061H0.475098V26.5191H3.8681C5.5091 26.5191 5.9441 26.2401 6.4011 25.7911C6.8231 25.3811 7.0911 24.7761 7.0911 24.1431C7.0911 23.3501 6.8351 22.5691 5.8531 22.2021ZM2.0831 19.8931H4.0031C4.7611 19.8931 5.2301 20.0931 5.2301 20.7511C5.2301 21.3891 4.7071 21.6451 4.0461 21.6451H2.0831V19.8931ZM4.1341 25.1351H2.0831V22.9921H4.2141C4.8181 22.9921 5.4191 23.2631 5.4191 23.9631C5.4171 24.7761 4.9481 25.1351 4.1341 25.1351Z" fill="#E9ECE0"/>
<path d="M0.476074 27.7881V28.5161H1.71607V31.8931H2.57107V28.5161H3.81407V27.7881H0.476074Z" fill="#E9ECE0"/>
<path d="M28.0659 21.7869L31.3359 18.5049H29.1719L26.1139 21.7619V18.5049H24.4399V26.5159H26.1139V23.8049L26.8949 23.0009L29.3709 26.5159H31.5249L28.0659 21.7869Z" fill="#E9ECE0"/>
<path d="M12.3609 18.5049H10.4309L7.5769 26.5169H9.3389L9.8959 24.8669H12.8529L13.3669 26.5159H15.1849L12.3609 18.5049ZM10.3419 23.4809L11.3689 20.3129H11.3919L12.3839 23.4809H10.3419Z" fill="#E9ECE0"/>
<path d="M19.8289 2.805C19.3269 2.212 18.7739 1.659 18.1239 1.18C17.8019 0.938 17.4579 0.715 17.0809 0.515C16.7009 0.319 16.3119 0.13 15.8469 0C15.8549 0.483 15.9389 0.908 16.0379 1.324C16.1319 1.728 16.2589 2.107 16.4069 2.471C16.0529 2.575 15.6229 2.721 15.1389 2.909C14.8259 3.049 14.4829 3.175 14.1369 3.362C13.7859 3.53 13.4299 3.734 13.0689 3.962C12.7019 4.169 12.3599 4.463 12.0009 4.717C11.6739 5.028 11.3149 5.297 11.0239 5.65C10.7229 5.988 10.4289 6.326 10.2019 6.71C10.0869 6.897 9.9539 7.07 9.8579 7.261C9.7659 7.455 9.6779 7.648 9.5919 7.836C9.3969 8.2 9.3079 8.592 9.2059 8.949C9.0849 9.303 9.0419 9.65 9.0089 9.97C8.9819 10.289 8.9149 10.571 8.9309 10.831C8.9389 11.087 8.9449 11.309 8.9509 11.493C8.9619 11.856 8.9649 12.063 8.9649 12.063C8.9649 12.063 9.0039 11.858 9.0699 11.501C9.1029 11.324 9.1439 11.111 9.1909 10.865C9.2279 10.62 9.3549 10.36 9.4429 10.073C9.5369 9.786 9.6459 9.48 9.8259 9.186C9.9899 8.887 10.1389 8.564 10.3809 8.285C10.4899 8.142 10.6019 7.994 10.7129 7.847C10.8299 7.704 10.9799 7.581 11.1089 7.447C11.3629 7.17 11.6729 6.946 11.9799 6.724C12.2729 6.491 12.6299 6.334 12.9389 6.143C13.2909 6.002 13.6009 5.826 13.9469 5.724C14.2769 5.604 14.6019 5.503 14.9199 5.431C15.2289 5.341 15.5399 5.301 15.8109 5.243C15.9849 5.218 16.1449 5.197 16.2989 5.178C16.2809 5.224 16.2619 5.268 16.2459 5.315C16.0879 5.748 15.9649 6.203 15.8789 6.682C15.8399 6.925 15.8079 7.171 15.7829 7.422C15.7629 7.677 15.7589 7.941 15.7769 8.219C16.0379 8.119 16.2749 8.006 16.4999 7.883C16.7169 7.756 16.9299 7.624 17.1329 7.488C17.5359 7.211 17.8989 6.91 18.2269 6.588C18.8909 5.946 19.4399 5.229 19.9009 4.458L19.9599 4.36C20.2429 3.881 20.2099 3.254 19.8289 2.805Z" fill="#E9ECE0"/>
<path d="M7.57795 30.9651C7.57795 30.1991 7.39395 30.0731 7.05695 29.9251C7.46295 29.7881 7.69195 29.4011 7.69195 28.9461C7.69195 28.5921 7.49295 27.7871 6.40095 27.7871H4.32495V31.8901H5.16695V30.2851H6.05195C6.68695 30.2851 6.72195 30.5031 6.72195 31.0611C6.72195 31.4831 6.75495 31.6971 6.81195 31.8891H7.76095V31.7821C7.57795 31.7141 7.57795 31.5641 7.57795 30.9651ZM6.16895 29.5961H5.16595V28.4961H6.23395C6.73595 28.4961 6.83395 28.8141 6.83395 29.0331C6.83295 29.4371 6.61695 29.5961 6.16895 29.5961Z" fill="#E9ECE0"/>
<path d="M23.3389 28.5161V27.7881H20.4189V31.8941H21.2769V30.1681H23.0829V29.4421H21.2769V28.5161H23.3389Z" fill="#E9ECE0"/>
<path d="M24.755 31.165V30.105H26.755V29.379H24.755V28.517H26.934V27.79H23.915V31.893H27.03V31.165H24.755Z" fill="#E9ECE0"/>
<path d="M18.691 29.553L17.693 29.307C17.521 29.266 17.257 29.197 17.257 28.877C17.257 28.506 17.648 28.387 17.972 28.387C18.722 28.387 18.791 28.82 18.814 29.003H19.634C19.628 28.5 19.292 27.678 18.034 27.678C16.702 27.678 16.457 28.483 16.457 28.94C16.457 29.844 17.096 29.995 17.76 30.147L18.199 30.251C18.632 30.356 18.942 30.44 18.942 30.762C18.942 31.191 18.489 31.291 18.086 31.291C17.336 31.291 17.221 30.857 17.215 30.628H16.395C16.395 31.139 16.65 32 18.148 32C18.506 32 19.765 31.888 19.765 30.657C19.764 29.92 19.25 29.689 18.691 29.553Z" fill="#E9ECE0"/>
<path d="M30.982 30.9651C30.982 30.1991 30.796 30.0731 30.461 29.9251C30.865 29.7881 31.098 29.4011 31.098 28.9461C31.098 28.5921 30.897 27.7871 29.805 27.7871H27.731V31.8901H28.573V30.2851H29.458C30.091 30.2851 30.128 30.5031 30.128 31.0611C30.128 31.4831 30.161 31.6971 30.219 31.8891H31.165V31.7821C30.982 31.7141 30.982 31.5641 30.982 30.9651ZM29.576 29.5961H28.572V28.4961H29.638C30.142 28.4961 30.24 28.8141 30.24 29.0331C30.24 29.4371 30.023 29.5961 29.576 29.5961Z" fill="#E9ECE0"/>
<path d="M21.1449 18.5081V24.0861H21.1239L17.9429 18.5081H16.1799V26.5201H17.7419L17.7439 20.8081H17.7649L21.0349 26.5211H22.7069V18.5081H21.1449Z" fill="#E9ECE0"/>
<path d="M10.474 27.7881H9.48302L8.02002 31.8911H8.92402L9.20902 31.0441H10.723L10.987 31.8911H11.919L10.474 27.7881ZM9.43902 30.3361L9.96602 28.7141H9.97402L10.486 30.3361H9.43902Z" fill="#E9ECE0"/>
<path d="M14.9759 27.7881L14.9749 30.6441H14.9649L13.3339 27.7881H12.4319V31.8911H13.2309V28.9641H13.2439L14.9179 31.8911H15.7769V27.7881H14.9759Z" fill="#E9ECE0"/>
<path d="M21.957 5.66004C21.938 5.29804 21.922 5.09204 21.922 5.09204C21.922 5.09204 21.893 5.29704 21.832 5.65604C21.803 5.83304 21.77 6.04804 21.731 6.29504C21.701 6.54104 21.582 6.80404 21.502 7.09404C21.419 7.38404 21.32 7.69204 21.148 7.99204C20.994 8.29604 20.855 8.62204 20.621 8.90904C20.517 9.05604 20.41 9.20604 20.304 9.35804C20.189 9.50304 20.045 9.63104 19.916 9.76904C19.672 10.052 19.369 10.287 19.068 10.517C18.785 10.759 18.431 10.925 18.127 11.126C17.781 11.277 17.476 11.463 17.133 11.574C16.808 11.705 16.485 11.815 16.169 11.896C15.864 11.996 15.556 12.045 15.286 12.11C15.113 12.141 14.952 12.167 14.8 12.19C14.814 12.143 14.833 12.099 14.849 12.052C14.993 11.613 15.103 11.155 15.175 10.674C15.206 10.43 15.229 10.183 15.247 9.93104C15.26 9.67604 15.256 9.41104 15.231 9.13504C14.973 9.24104 14.739 9.36204 14.518 9.49204C14.303 9.62504 14.098 9.76304 13.897 9.90504C13.505 10.194 13.151 10.505 12.833 10.838C12.189 11.499 11.662 12.232 11.224 13.017L11.167 13.115C10.898 13.603 10.95 14.228 11.345 14.666C11.865 15.243 12.435 15.78 13.097 16.239C13.425 16.472 13.776 16.684 14.161 16.872C14.544 17.058 14.938 17.236 15.409 17.351C15.384 16.87 15.286 16.448 15.179 16.035C15.072 15.634 14.935 15.258 14.775 14.899C15.127 14.784 15.55 14.626 16.029 14.424C16.337 14.276 16.676 14.138 17.017 13.941C17.361 13.764 17.713 13.549 18.062 13.31C18.422 13.092 18.756 12.788 19.109 12.523C19.426 12.204 19.777 11.922 20.058 11.562C20.349 11.215 20.631 10.87 20.847 10.479C20.957 10.288 21.082 10.111 21.174 9.91704C21.258 9.72004 21.342 9.52504 21.422 9.33404C21.606 8.96404 21.684 8.56904 21.776 8.21004C21.884 7.85404 21.92 7.50504 21.942 7.18504C21.963 6.86604 22.018 6.58104 21.996 6.32204C21.979 6.06704 21.967 5.84404 21.957 5.66004Z" fill="#E9ECE0"/>
</svg>
