<svg width="139" height="154" viewBox="0 0 139 154" fill="none" xmlns="http://www.w3.org/2000/svg">
<path d="M121.742 14.2947C120.114 17.0175 120.669 20.7498 119.8 23.5238C119.07 25.6914 117.939 27.7087 117.284 29.9429C116.658 31.9944 115.957 33.9793 115.011 35.6396C111.778 41.2098 108.717 49.4396 103.017 55.5204C102.855 53.6005 102.621 45.456 98.4064 48.3735C97.5925 47.3332 96.8532 46.3595 95.7864 45.3022C93.8993 45.9136 91.4448 48.211 91.8761 50.5803C88.2737 49.6595 89.1006 54.8881 90.3198 57.1258C88.0923 58.2685 89.2467 61.1792 88.5107 63.6543C87.4667 67.525 84.8339 72.2736 82.6518 76.0673C80.3141 80.0353 77.5743 83.8529 74.6626 87.4126C65.7364 98.7563 56.0416 109.309 45.7048 116.678C46.5056 113.53 45.0757 110.477 44.1288 107.334C43.5257 107.109 43.0653 107.324 42.433 107.281C41.9628 106.757 42.3033 106.225 41.5283 105.742C37.8092 105.552 33.4968 108.279 33.779 112.916C33.9184 114.711 35.4554 116.293 35.3938 118.013C32.8485 119.812 32.2163 124.572 30.4168 127.037C29.1426 128.614 27.4144 130.098 26.0428 131.484C19.1106 138.343 9.51947 141.575 1.40042 144.66C1.27722 145.698 0.797362 146.836 0.852505 147.825C1.28702 148.839 1.97444 149.871 1.72479 150.901C2.9537 151.477 4.12103 153.773 5.54123 153.684C12.3179 151.802 19.354 149.629 25.7967 145.569C28.9289 143.564 31.9703 141.06 35.3262 139.254C37.0414 138.385 38.6529 137.631 40.1444 136.562C42.5568 135.062 44.7227 133.238 47.6085 133.31C49.0481 132.299 50.624 132.036 52.2744 131.839C54.8684 133.739 56.8528 133.319 58.9798 133.339C59.4856 133.373 59.2684 132.866 59.5278 132.576C62.4654 132.589 66.3239 129.771 65.7175 126.097C65.3219 125.639 64.7999 125.173 64.1514 124.698C64.0379 124.074 64.5437 124.109 64.3556 123.418C62.1312 120.805 58.8628 119.66 57.06 121.078C58.1041 119.609 59.6928 118.731 61.3238 117.056C64.015 114.343 67.2638 111.607 69.9323 108.769C70.7624 107.84 71.547 106.662 72.7208 106.248C73.4211 104.263 75.2693 103.095 76.67 101.527C80.9824 96.3993 84.5133 91.0956 87.9567 86.3402C88.4009 85.6928 89.0234 84.9959 89.5941 84.3571C92.3436 81.2791 95.6184 77.3128 98.355 74.8497C100.395 73.0169 103.16 72.7727 105.501 72.2535C106.014 71.9802 105.738 71.8384 106.198 71.6232C108.141 72.0007 109.888 71.9956 111.38 70.9264C115.949 71.6661 119.301 68.8136 122.077 64.5057C120.426 62.3004 118.458 60.7511 116.263 60.3565C115.355 60.172 114.687 60.6195 113.802 60.5597C111.83 60.3649 109.574 59.2887 108.393 60.0095C113.64 51.4348 118.818 44.8876 122.462 37.8057C125.13 32.5668 127.685 26.7045 131.349 21.1019C131.712 20.6953 132.361 21.1702 132.799 20.8303C134.767 19.978 134.974 17.344 136.025 15.5676C136.342 14.9117 137.085 14.5308 137.403 13.8748C138.748 11.3178 138.061 7.88438 136.618 5.44683C135.866 5.0881 135.733 5.38702 135.279 5.29478C135.052 4.04782 135.181 2.7018 134.575 1.42922C132.707 1.1183 130.811 0.99015 129.387 2.4335C128.606 2.25755 129.264 1.0704 128.362 0.578439C125.597 0.822646 122.26 4.10735 122.679 7.09149C120.393 8.59973 120.678 11.8828 121.742 14.2947ZM122.244 8.4785C122.623 8.50413 122.562 7.82257 123.158 8.35552C123.003 8.52974 122.922 8.77061 122.766 8.94483C122.572 8.5622 122.059 8.83549 122.244 8.4785ZM123.778 11.4148C123.311 11.9375 123.168 11.4968 122.461 11.3875C122.795 11.1637 124.365 11.2081 123.801 11.5395C123.927 11.5481 123.904 11.4234 123.778 11.4148ZM124.326 10.6513C123.694 10.6086 122.52 11.0219 122.05 10.4975C122.555 10.5317 123.664 10.7914 123.505 9.91849C122.925 9.8177 122.384 10.2737 121.66 9.73226C122.604 9.42652 123.674 9.12933 123.729 7.7167C126.031 9.04226 128.415 12.5286 127.111 14.288C125.279 13.4868 124.679 11.9068 124.326 10.6513ZM125.626 7.84485C125.918 8.41879 126.177 8.1284 126.579 8.27872C126.476 8.39488 126.446 8.57765 126.722 8.71944C126.774 8.66137 126.9 8.6699 126.871 8.85267C126.573 8.58619 126.537 9.07644 126.187 8.86803C126.498 8.51958 125.114 8.11814 125.626 7.84485ZM129.095 9.06452C129.28 8.70752 129.579 8.974 129.854 9.11577C129.767 9.66409 129.394 9.33099 129.095 9.06452ZM101.772 54.5126C101.587 54.8696 102.087 55.2112 101.85 55.6263C101.724 55.6178 101.626 55.4265 101.523 55.5426C101.487 56.0328 102.083 56.5658 101.743 57.097C101.37 56.7639 101.435 56.0909 100.877 56.1148C100.864 56.7298 101.574 57.8862 100.735 58.0758C100.592 57.6351 100.932 57.1038 100.232 56.687C100.018 57.2268 99.9889 57.4096 99.5057 57.5001C99.5965 57.9989 99.8657 58.4481 99.5771 58.9213C98.8767 58.5045 99.4182 58.0484 98.7697 57.5735C98.2509 58.1543 99.1102 59.444 98.1504 59.3175C97.9851 58.7521 98.3255 58.2209 97.6024 57.6794C97.3593 58.402 97.8002 59.1091 97.6089 59.7736C97.3819 58.5267 96.166 57.336 96.594 56.2565C97.3851 54.7704 100.284 54.2273 101.772 54.5126ZM96.1174 60.8429C95.9099 61.0752 95.6051 61.1162 95.2549 60.9078C95.4171 60.4261 95.7672 60.6345 96.1174 60.8429ZM95.8645 58.4241C95.9034 58.981 96.299 59.4388 96.085 59.9786C95.6894 59.5208 95.5597 58.4651 95.8645 58.4241ZM100.893 49.342C100.997 49.2259 100.757 48.5938 101.107 48.8023C101.766 50.0168 102.119 51.2723 102.346 52.5192C101.95 52.0614 100.757 50.9955 100.342 51.4601C100.634 52.0341 101.094 51.8188 101.007 52.3672C100.611 51.9094 100.368 52.6319 100.718 52.8403C101.201 52.7498 101.402 52.8249 101.873 53.3494C101.487 53.6312 101.01 53.4142 100.556 53.322C100.715 51.7932 99.3791 50.2866 99.0322 48.7236C99.4796 49.1234 100.284 49.424 100.893 49.342ZM95.7313 46.7148C95.6275 46.8309 95.5984 47.0137 95.6211 47.1384C95.1736 46.7387 94.9369 47.1538 94.4602 46.9368C94.7942 46.7131 95.1574 46.3065 95.7313 46.7148ZM92.4759 49.7586C93.1957 49.253 94.389 50.3189 95.0861 49.6887C94.2593 49.2633 93.6951 49.5947 92.771 48.978C92.865 48.1222 93.4454 48.223 93.9706 47.3348C94.6418 47.9344 94.9823 47.4032 95.5627 47.5039C95.5206 48.3017 94.5219 47.6184 93.9642 47.6423C93.7567 47.8746 93.6756 48.1154 93.8993 48.3153C94.5543 48.4827 95.1185 48.1513 95.7216 48.3768C96.062 47.8456 95.621 47.1384 96.3344 46.9403C98.2378 49.1626 99.8363 51.4259 99.6872 53.6944C98.8247 53.7593 98.1568 54.2068 97.3397 54.5211C96.9895 54.3127 97.197 54.0803 96.7204 53.8634C96.8241 53.7472 96.9798 53.573 97.009 53.3903C96.8079 53.3151 96.6296 53.3646 96.3832 53.0401C96.3734 52.3004 95.8546 50.4796 95.2871 49.7638C94.924 50.1704 95.2969 50.5035 94.9337 50.91C94.2334 50.4932 95.3423 50.7528 94.8948 50.3531C94.2171 50.061 93.1406 50.6657 92.4759 49.7586ZM95.1964 51.6667C94.5414 51.4993 93.9772 51.8307 93.2768 51.4139C93.76 51.3233 95.2093 51.0518 95.1964 51.6667ZM90.5954 54.866C90.0961 54.5243 90.6343 55.4228 90.2614 55.0897C90.1771 54.2835 89.8918 53.4021 90.1122 52.5548C90.5597 52.9545 90.7672 52.7222 90.9099 53.1629C90.8742 53.6532 89.9501 53.0365 90.2192 53.4858C90.6148 53.9436 91.2763 53.8035 91.3152 54.3604C90.965 54.152 90.563 54.0016 90.2582 54.0426C89.9469 54.3911 90.6765 54.6251 90.5954 54.866ZM91.6168 55.6739C91.727 55.2503 92.703 55.8089 92.4404 55.0522C92.0383 54.9019 91.2958 55.2828 91.1304 54.7174C91.607 54.9343 91.8373 54.8267 92.1485 54.4782C91.513 53.3884 90.8774 52.2986 91.4838 51.1696C93.4293 52.5942 95.4656 54.5176 95.0603 55.7218C95.0895 55.5391 94.843 55.2145 94.6874 55.3887C94.6517 55.879 95.3392 56.9107 94.8042 57.0593C94.8333 56.8765 94.5415 56.3026 94.334 56.5349C94.4475 57.1584 95.1576 58.3148 94.5934 58.6462C94.3762 58.1388 94.5902 57.5991 93.9417 57.1242C93.705 57.5393 94.3924 58.571 93.9093 58.6615C93.8314 57.5478 93.2607 55.785 91.6168 55.6739ZM43.0299 119.822C41.9048 121.532 40.3808 121.737 38.7434 121.319C40.3646 121.305 41.8723 120.668 43.0299 119.822ZM36.6325 121.73C36.6747 120.933 38.5585 121.676 38.9995 122.383C38.2408 122.332 37.5793 122.472 36.6325 121.73ZM41.1169 124.065C40.008 123.806 38.4775 124.318 37.5145 123.145C38.578 123.155 40.2447 123.391 41.1169 124.065ZM39.9949 119.617C40.2543 119.327 41.0066 119.686 41.1492 120.126C40.8834 120.724 40.2867 120.191 39.8782 120.348C40.3905 120.075 39.6609 119.841 39.9949 119.617ZM42.2646 117.677C42.2192 117.428 42.7153 116.722 43.2373 117.188C42.9261 117.537 42.7348 118.201 42.2646 117.677ZM41.8431 118.449C41.561 118.615 41.3016 118.905 40.9287 118.572C41.0908 118.09 41.5383 118.49 41.8431 118.449ZM39.3432 120.497C39.2167 120.488 39.1195 120.297 39.0157 120.413C39.1649 120.547 39.0092 120.721 38.8082 120.646C39.194 120.364 38.4645 120.13 38.9249 119.915C39.327 120.065 39.4988 120.323 39.3432 120.497ZM44.8488 116.435C44.6413 116.667 44.0869 117.738 44.1225 117.248C44.2555 116.949 44.8099 115.878 44.8488 116.435ZM44.7061 115.994C45.0239 115.339 45.0985 115.405 45.1114 114.79C45.4843 115.123 45.3092 116.22 44.7061 115.994ZM44.625 113.834C43.9668 115.021 44.1841 115.528 43.2211 116.756C42.3359 114.295 42.0051 110.762 43.3604 108.945C43.2696 108.446 42.6373 108.403 42.8967 108.113C44.5893 109.521 44.2845 111.963 44.625 113.834ZM41.2886 114.717C41.0713 114.209 41.509 113.869 42.0829 114.278C41.9727 114.701 41.7425 114.809 41.2886 114.717ZM39.7159 113.625C39.5279 112.935 39.3398 112.245 39.4565 111.514C40.0531 112.047 40.4098 111.948 40.8637 112.04C40.4941 112.754 40.3352 111.881 39.9494 112.163C40.2801 113.294 41.4604 112.573 42.1672 112.682C41.4117 113.678 39.7127 112.578 39.7159 113.625ZM39.463 111.206C39.6186 111.032 39.5213 110.841 39.677 110.667C40.6984 111.475 41.2982 110.653 42.1769 111.02C41.8073 111.734 40.4454 111.458 39.463 111.206ZM42.1575 111.943C41.8689 112.416 41.3923 112.199 40.8864 112.165C41.2723 111.883 41.7035 111.85 42.1575 111.943ZM42.6892 108.345C42.3714 109.001 42.1282 109.724 42.1153 110.339C41.3501 110.595 40.5103 110.785 39.5116 110.101C39.6672 109.927 39.7483 109.686 39.9039 109.512C40.7988 110.311 41.3176 109.731 41.9791 109.591C41.6062 109.257 41.3241 109.423 40.922 109.273C41.1068 108.916 41.5024 109.374 41.7164 108.834C41.3889 108.75 41.0096 108.724 40.5556 108.632C41.3111 107.636 41.9239 108.602 42.6892 108.345ZM39.1484 110.508C38.889 110.798 37.9131 110.24 37.9422 110.057C38.3216 110.082 38.6491 110.166 39.1484 110.508ZM39.9006 108.465C39.4856 108.929 39.2716 109.469 39.1095 109.951C38.7139 109.493 38.4545 109.783 37.9552 109.442C38.0946 108.835 39.6218 109.678 39.0317 108.837C39.3138 108.671 39.5505 108.256 39.9006 108.465ZM41.337 106.407C40.2087 107.069 38.7074 107.399 37.3942 108.419C37.8709 108.636 37.5369 108.859 37.5823 109.109C35.4942 109.645 35.2964 113.019 34.982 114.722C33.1531 110.164 37.2612 106.316 41.337 106.407ZM35.7374 113.726C36.2627 112.838 37.2549 113.828 37.7348 112.691C37.2289 112.657 36.6939 112.805 36.1362 112.829C36.3437 112.597 36.4248 112.356 36.6323 112.124C36.8625 112.016 37.2808 112.598 37.4365 112.424C38.1044 111.977 37.6342 111.452 37.7963 110.971C39.3495 112.985 39.3366 116.001 40.2737 118.405C40.0435 118.512 39.6933 118.304 39.4112 118.469C39.836 118.744 39.755 118.985 39.4956 119.276C38.1013 118.135 38.1466 115.982 37.3165 114.51C37.4041 113.962 37.8061 114.112 37.6116 113.729C37.0312 113.628 36.5643 114.151 35.7374 113.726ZM37.1836 114.809C36.9696 115.349 36.1136 115.106 35.8736 114.474C36.2303 114.375 36.9663 114.302 37.1836 114.809ZM35.6045 116.426C35.9158 116.078 35.1765 115.104 35.6823 115.138C35.6921 115.878 36.2368 116.469 36.3795 116.91C36.2239 117.084 35.8575 116.443 35.6045 116.426ZM35.6824 119.942C35.4587 119.742 35.2804 119.791 35.0566 119.592C35.0112 119.342 35.0404 119.159 35.2998 118.869C35.7473 119.269 35.6889 119.634 35.6824 119.942ZM57.378 132.43C57.8384 132.215 58.4091 131.576 57.8871 131.11C57.6893 132.082 56.4539 131.814 56.843 132.579C55.5493 132.676 53.6362 132.116 52.4138 131.233C52.6115 130.261 54.1063 130.239 55.0564 129.626C55.1115 130.615 56.603 129.545 56.616 128.93C57.9875 129.947 55.4228 130.266 56.0421 130.924C56.5641 131.39 57.1769 129.954 57.3196 130.394C57.0829 130.809 56.3631 131.315 56.8106 131.715C57.4429 131.757 57.3131 130.702 58.0492 130.628C58.4156 131.269 58.4026 131.884 58.4415 132.441C58.0622 132.415 57.7282 132.639 57.378 132.43ZM59.4207 131.645C58.97 130.198 57.2093 128.416 56.4408 127.625C56.8267 127.344 56.7165 127.767 57.125 127.61C59.145 126.7 56.1976 123.545 57.5562 122.774C57.8123 123.839 58.6197 125.186 58.5711 126.291C58.529 127.089 57.66 127.461 57.9972 128.285C58.8889 128.037 58.6457 126.358 59.2326 126.151C59.4498 126.659 59.1613 127.132 59.6314 127.656C60.3253 125.979 59.0704 124.231 57.8772 123.165C60.4938 122.788 59.3849 124.93 60.6106 126.86C61.0516 127.567 60.7631 128.041 61.1586 128.498C61.8525 126.821 60.0626 125.222 60.1242 123.502C61.0126 124.609 60.7338 125.822 61.6969 126.995C61.9984 125.907 61.0062 124.916 60.6754 123.786C61.0775 123.936 61.3304 123.953 61.8297 124.295C62.1086 125.484 62.9809 126.158 63.3635 127.231C63.9568 126.717 63.4186 125.818 63.5353 125.087C66.9821 128.584 61.8007 131.682 59.4207 131.645ZM63.4413 125.943C62.9128 125.784 62.6209 125.21 62.783 124.729C62.9776 125.111 63.2986 125.502 63.4413 125.943ZM61.7292 123.056C62.1442 122.592 63.8206 123.567 63.0716 124.255C61.8492 123.372 61.4925 123.471 60.2409 122.771C60.9088 122.323 59.4497 121.855 59.9393 121.457C60.7726 121.575 60.8732 122.814 61.7292 123.056ZM59.5113 122.537C59.132 122.511 58.7526 122.486 58.3051 122.086C58.6164 121.738 58.571 121.488 58.7039 121.189C59.4108 121.299 59.4951 122.105 59.5113 122.537ZM55.4842 123.743C56.5608 125.54 55.6724 129.236 53.2179 129.132C53.6394 128.36 52.2192 128.449 51.6517 127.733C52.3651 127.535 51.4183 126.793 51.5804 126.312C52.4169 127.477 53.5291 128.783 54.6575 128.121C54.0382 127.463 52.2678 127.344 52.9876 126.838C53.3832 127.296 54.0317 127.771 54.9007 127.398C54.7515 127.265 54.8034 127.207 54.6542 127.074C54.0447 127.156 53.0524 126.165 52.5855 126.688C52.2645 126.296 51.6517 125.331 52.0829 125.299C51.9435 125.905 52.4266 125.815 52.6958 126.264C52.8125 125.533 53.3508 126.431 53.5583 126.199C53.8241 125.601 52.365 125.133 53.0103 124.561C53.2923 124.395 53.6004 125.401 54.0608 125.186C54.2456 124.829 53.568 124.537 53.7009 124.238C53.9765 124.38 54.3948 124.962 54.6023 124.73C54.839 124.315 54.0122 123.89 54.3753 123.483C54.5828 123.251 55.2248 124.033 55.4842 123.743ZM52.4462 129.696C52.3781 129.322 51.5512 128.896 51.6096 128.531C51.856 128.855 53.0039 129.672 52.4462 129.696ZM101.948 72.6292C101.092 72.3866 99.8433 72.7334 99.4866 72.8324C99.5223 72.3422 100.304 72.5181 100.035 72.0689C98.877 72.9144 97.6449 73.6933 96.4193 74.1647C96.1728 73.8402 95.7254 73.4404 95.9102 73.0834C96.2604 73.2918 96.3966 74.04 96.6787 73.8743C98.8965 71.992 100.43 70.125 103.277 69.64C103.501 69.8398 103.092 69.997 103.316 70.1968C103.449 69.8979 103.747 70.1644 103.857 69.7408C104.483 70.091 105.19 70.2003 105.631 70.9075C104.451 71.6283 102.531 71.3754 101.948 72.6292ZM97.0093 70.2018C97.2687 69.9114 97.4243 69.7372 97.8037 69.7628C97.8491 70.0122 98.1474 70.2787 98.3193 70.5366C97.9853 70.7604 97.1326 71.5649 97.0126 71.2489C97.3174 71.2079 97.6999 69.879 97.0093 70.2018ZM101.101 68.323C100.715 68.6048 101.014 68.8713 101.393 68.8969C100.748 69.4691 100.028 69.9747 99.1882 70.1643C99.2012 69.5494 99.8335 69.5921 99.3633 69.0677C99.9502 68.861 100.492 68.4049 101.101 68.323ZM103.634 64.7376C103.783 64.8708 103.932 65.0041 104.058 65.0126C103.851 65.2449 103.523 65.1612 103.293 65.2688C103.322 65.0861 103.478 64.9118 103.634 64.7376ZM104.292 65.9521C104.314 66.0768 104.22 66.9326 103.75 66.4082C103.452 66.1417 103.993 65.6856 104.292 65.9521ZM96.3998 72.6855C97.3044 71.8229 98.209 70.9603 99.3309 70.605C98.8057 71.4932 97.486 72.8204 96.3998 72.6855ZM108.176 66.7072C107.752 66.4322 108.137 66.1503 107.512 65.8001C107.622 65.3765 107.943 65.7677 108.196 65.7848C108.137 66.1503 108.257 66.4663 108.176 66.7072ZM108.65 65.877C109 66.0854 109.23 65.9778 109.373 66.4185C109.269 66.5347 109.165 66.6508 109.039 66.6423C108.614 66.3673 108.62 66.0598 108.65 65.877ZM107.275 66.2152C107.142 66.5141 106.717 66.2391 106.539 66.2886C106.396 65.848 107.161 65.5917 107.275 66.2152ZM106.85 70.7435C106.902 70.6854 107.006 70.5693 106.857 70.436C106.766 69.9373 108.857 70.448 108.371 69.4915C107.755 69.8809 107.093 70.021 106.192 69.529C106.555 69.1225 107.79 69.3907 107.706 68.5844C106.733 69.0729 105.521 68.9294 104.263 68.5365C104.506 67.814 105.125 68.4716 105.378 68.4887C107.113 66.6969 109.434 67.1001 111.785 67.3205C112.21 67.5955 112.404 67.9781 112.651 68.3027C111.117 70.1697 109.269 71.338 106.85 70.7435ZM113.624 67.8142C113.64 68.2463 113.643 69.2934 112.907 69.3669C113.345 69.027 112.91 68.0123 113.624 67.8142ZM112.285 70.0638C112.544 69.7734 112.7 69.5992 113.079 69.6248C112.923 69.799 113.147 69.9989 113.118 70.1817C112.768 69.9733 112.68 70.5216 112.285 70.0638ZM113.4 70.016C114.506 69.2285 113.682 67.4486 114.746 67.4589C114.985 68.0909 114.363 68.7878 114.603 69.4199C114.707 69.3037 114.93 69.5036 115.034 69.3874C115.034 69.3874 115.193 67.8586 115.388 68.2412C115.478 68.74 115.264 69.2798 115.615 69.4882C114.924 69.811 114.233 70.1339 113.4 70.016ZM120.945 64.1213C120.326 65.8653 118.701 67.2335 117.537 68.3865C116.895 67.6041 117.33 66.2171 116.526 65.9165C116.425 67.0797 117.8 69.1432 115.845 69.3806C116.117 68.4753 116.188 67.4948 115.449 66.5211C116.493 65.0522 117.307 63.6908 117.219 61.8375C118.685 61.998 119.774 63.1801 120.945 64.1213ZM112.836 60.7407C112.472 61.1473 112.933 60.932 113.157 61.1319C113.478 61.5231 112.018 61.055 112.459 61.7622C113.649 61.781 114.846 61.4923 116.276 62.1432C116.438 64.0631 114.343 67.3086 112.372 67.1138C111.036 65.6072 109.123 65.0469 107.761 64.7701C107.479 62.5342 110.628 63.3627 110.339 61.4342C110.747 61.2771 110.958 62.0918 111.166 61.8595C111.299 61.5606 111.231 61.1865 111.237 60.8791C110.744 60.23 110.293 61.1848 110.18 60.5613C110.394 60.0215 111.95 60.6809 112.836 60.7407ZM106.133 62.6896C106.594 62.4744 105.686 62.2899 105.945 61.9995C106.422 62.2164 106.801 62.2421 106.636 61.6767C108.267 62.4027 107.252 63.6889 107.255 64.736C106.445 64.7428 105.709 64.8162 104.898 64.823C105.365 64.3003 106.211 63.8033 106.276 63.1303C106.769 63.7794 107.392 63.0825 107.249 62.6418C106.772 62.4248 106.529 63.1474 106.023 63.1132C105.777 62.7886 104.921 62.5461 105.358 62.2062C105.44 61.9653 105.822 63.038 106.133 62.6896ZM98.8218 69.5237C98.5916 69.6313 98.5787 70.2463 98.2803 69.9798C98.2576 69.8551 98.235 69.7304 98.0339 69.6552C98.196 69.1735 98.4943 69.44 98.8218 69.5237ZM123.632 33.9436C123.399 33.0041 122.682 32.1551 121.35 31.6956C122.319 32.5616 122.783 33.3935 123.425 34.1759C123.195 34.2835 123.13 34.9565 122.78 34.7481C122.546 33.8086 121.813 32.5275 121.032 32.3515C121.898 33.3337 121.768 34.6797 122.877 34.9394C122.64 35.3545 122.708 35.7285 122.151 35.7525C122.417 35.1546 121.214 33.3491 120.448 33.6053C121.596 34.4218 121.444 35.6431 122.345 36.1351C122.115 36.2427 122.102 36.8576 121.804 36.5911C121.661 36.1504 121.719 35.7849 121.398 35.3937C120.857 35.8498 120.361 34.1536 119.91 35.1084C120.565 35.2758 122.52 37.4401 121.116 37.9611C121.026 37.4623 121.061 36.9721 120.717 36.4562C120.458 36.7466 119.868 35.9061 119.706 36.3878C119.917 37.2026 121.661 38.5521 120.688 39.0406C120.409 37.8517 120.208 37.7766 119.226 37.5255C119.437 38.3402 121.486 39.6487 120.208 40.1782C119.917 39.6043 119.333 38.4564 118.782 38.1728C118.993 38.9876 119.456 39.8195 120.098 40.6018C119.868 40.7094 119.803 41.3825 119.453 41.174C119.57 40.443 118.393 39.8092 117.9 39.1601C117.906 38.8527 118.584 39.1448 118.188 38.687C117.913 38.5452 117.666 38.2206 117.563 38.3368C117.722 39.2097 117.459 38.4529 116.775 38.4683C117.566 39.3839 118.678 40.6906 119.284 41.9632C119.002 42.1289 118.938 42.8019 118.587 42.5935C118.853 41.9957 118.017 40.8307 117.413 40.6052C117.699 41.4866 118.289 42.327 118.396 43.258C117.764 43.2153 117.566 41.7855 116.934 41.7428C116.788 42.6567 117.923 44.0881 117.329 44.6023C116.986 44.0864 116.908 42.9727 116.201 42.8633C116.308 43.7943 116.742 44.8089 116.723 45.7313C116.178 45.1403 115.945 44.2008 115.387 44.2247C115.672 45.1061 115.274 46.0029 116.117 46.8604C115.886 46.968 115.822 47.641 115.471 47.4326C115.329 46.9919 115.157 46.734 115.692 46.5854C115.296 46.1276 115.241 45.1386 114.787 45.0463C114.469 45.7022 115.646 46.336 114.651 46.6998C114.897 47.0244 114.839 47.3899 115.413 47.7982C115.131 47.9638 115.066 48.6369 114.716 48.4284C114.372 47.9126 114.512 47.3062 114.168 46.7903C113.494 47.5453 115.163 48.8282 114.168 49.192C113.727 48.4848 113.568 47.6119 112.787 47.436C112.923 48.1842 113.312 48.9494 113.954 49.7318C113.643 50.0802 113.688 50.3296 113.555 50.6285C113.01 50.0375 112.939 48.6163 112.099 48.8059C112.206 49.7368 113.63 50.6951 112.874 51.691C112.404 51.1666 112.333 49.7454 111.493 49.935C111.681 50.6251 111.966 51.5065 112.771 51.8071C112.615 51.9814 112.482 52.2803 112.326 52.4545C111.827 52.1129 112.054 50.9582 111.237 51.2724C111.26 51.3971 112.08 52.13 111.425 51.9625C111.529 51.8464 111.156 51.5133 111 51.6875C111.039 52.2444 111.227 52.9345 111.882 53.1019C111.726 53.2761 111.645 53.5169 111.49 53.6912C110.916 53.2829 110.919 51.9284 110.154 52.1846C110.417 52.9413 111.49 53.6912 110.89 54.5128C110.264 54.1626 110.501 53.7475 109.8 53.3307C109.771 53.5135 109.869 53.7048 109.586 53.8705C110.212 54.2207 110.9 55.2524 110.089 55.2592C110.17 55.0184 109.356 53.9781 109.142 54.5179C109.233 55.0167 109.933 55.4335 109.898 55.9237C109.421 55.7068 109.914 56.3559 109.46 56.2636C108.977 56.3541 109.032 54.9415 108.364 55.389C108.254 55.8126 109.029 56.2961 109.171 56.7368C108.964 56.9691 108.883 57.2099 108.675 57.4422C108.228 57.0425 108.085 56.6018 107.625 56.817C107.768 57.2577 108.341 57.666 108.179 58.1477C107.592 58.3543 107.547 58.1049 107.064 58.1955C107.602 59.094 106.711 59.3416 106.445 59.9395C106.169 59.7977 106.056 59.1742 105.722 59.398C105.433 59.8711 106.334 60.3631 105.54 60.8021C104.84 60.3853 104.583 59.3211 103.825 59.2698C104.444 59.9275 104.357 60.4758 105.102 61.142C104.947 61.3162 104.866 61.5571 104.71 61.7313C104.337 61.3982 104.269 61.0241 103.844 60.7491C103.39 60.6568 103.757 61.2974 103.406 61.089C103.16 60.7644 102.191 59.8984 101.581 59.9804C102.097 60.7542 103.28 61.0805 104.152 61.7552C104.25 61.9465 103.955 62.7271 103.604 62.5187C103.559 62.2693 103.274 61.3879 102.739 61.5365C102.651 62.0848 103.374 62.6263 103.108 63.2242C102.661 62.8245 102.657 61.7774 102.019 62.0421C102.46 62.7493 101.857 62.5238 101.798 62.8893C102.148 63.0978 102.447 63.3642 102.567 63.6802C102.411 63.8545 102.33 64.0953 102.174 64.2695C101.802 63.9364 101.493 62.9303 100.929 63.2617C100.871 63.6272 101.37 63.9689 101.87 64.3105C101.639 64.4181 101.575 65.0911 101.224 64.8827C101.179 64.6334 100.663 63.8596 100.381 64.0252C100.041 64.5565 101.247 65.0074 101.033 65.5472C100.757 65.4054 100.751 65.7129 100.595 65.8871C100.044 65.6036 100.138 64.7478 99.6486 65.1458C99.6129 65.636 100.336 66.1775 100.553 66.6848C99.9372 67.0743 99.8658 65.6531 99.1298 65.7265C98.9677 66.2082 99.7945 66.6336 99.8853 67.1323C99.6097 66.9906 99.6032 67.298 99.4476 67.4723C98.8964 67.1887 98.812 66.3825 98.4035 66.5396C98.3905 67.1545 99.3146 67.7712 98.7959 68.3519C98.2382 68.3758 98.1149 67.0127 97.5572 67.0366C97.4178 67.643 98.3938 68.2016 98.0015 68.7909C97.8167 69.1479 97.3076 68.0667 97.1682 68.673C97.8329 69.5801 96.5391 69.6774 96.4516 70.2257C96.6008 70.359 96.7045 70.2428 96.9283 70.4427C96.6689 70.733 96.4841 71.09 96.1728 71.4385C95.7253 71.0388 95.0541 70.4392 94.3991 70.2718C94.2597 70.8782 95.4659 71.3292 95.9653 71.6708C95.855 72.0944 95.4821 71.7613 95.32 72.243C94.8726 71.8433 94.7007 71.5854 94.1203 71.4846C94.0846 71.9748 95.1644 72.4172 95.2552 72.916C95.1806 72.8494 95.106 72.7828 95.0023 72.8989C95.0769 72.9656 95.1514 73.0322 95.0477 73.1483C94.4965 72.8648 93.7799 72.0158 93.6761 72.132C94.3279 73.6539 95.6897 73.9307 96.2669 75.386C95.9329 75.6098 95.6962 76.0249 95.3915 76.0659C94.9634 74.7437 94.4251 73.8452 92.8169 73.2439C93.5854 74.0348 94.5484 75.2083 95.2812 76.4895C95.0737 76.7218 94.7689 76.7628 94.5841 77.1198C94.0912 76.4707 93.5465 75.8796 93.7378 75.2152C94.0361 75.4816 94.3117 75.6234 94.4673 75.4492C93.9226 74.8582 93.3389 73.7103 92.4764 73.7752C92.3954 74.016 93.1249 74.25 92.992 74.549C92.3597 74.5063 92.1489 73.6915 91.5685 73.5907C92.6807 74.8974 93.3617 76.2366 94.3993 77.4768C94.0491 77.2684 93.9843 77.9414 93.754 78.049C93.245 76.9677 92.243 75.2373 91.1632 74.7949C91.8734 75.9513 93.0374 77.2 93.5692 78.406C93.339 78.5136 93.2742 79.1866 92.924 78.9782C93.0991 77.8816 91.8896 76.3835 90.8098 75.9411C91.2735 76.7729 92.3695 77.6475 92.0745 78.4282C91.2476 78.0028 90.865 76.9301 90.3592 76.8959C90.197 77.3776 91.2768 77.82 91.1147 78.3017C90.5343 78.2009 90.5862 78.1429 89.915 77.5433C90.33 77.0787 88.6666 75.4884 88.2061 75.7036C88.9746 76.4945 89.5421 77.2102 89.8047 77.9669C89.5064 77.7004 89.1789 77.6167 89.0006 77.6663C89.9766 78.2248 90.0252 79.5213 90.9915 79.3403C91.4098 79.9228 91.8378 81.2449 90.7743 81.2346C90.9656 80.5701 90.3463 79.9125 89.9798 79.2719C89.4902 79.6699 90.2425 80.0287 90.0577 80.3857C89.3346 79.8442 88.8774 78.7048 88.3489 78.5459C88.5532 79.6682 89.9702 80.934 90.8197 81.484C90.6349 81.841 90.3236 82.1895 90.0642 82.4798C89.6232 81.7727 89.2568 81.1321 89.1206 80.3839C88.6375 80.4744 87.9663 79.8749 87.6972 79.4256C87.9015 80.5479 89.1466 81.5557 89.7302 82.7036C88.6538 83.3083 88.3847 85.2607 87.2758 85.001C86.9807 83.38 85.421 81.6735 83.8127 81.0722C84.9087 81.9468 85.1259 82.4541 85.9982 83.1288C85.9787 84.0512 87.6195 85.5169 86.7213 86.072C86.4651 85.0078 85.5994 84.0256 84.6526 83.2843C85.0806 84.6064 86.8769 85.8978 86.1896 87.2677C85.5929 86.7347 85.648 85.3221 84.6299 85.5612C85.2719 86.3436 85.2817 87.0832 85.7973 87.857C85.5152 88.0227 85.4503 88.6957 85.1001 88.4873C85.032 88.1132 84.7629 87.664 84.6948 87.2899C84.8958 87.365 85.3141 87.9475 85.5216 87.7152C85.2817 87.0832 84.4451 85.9182 83.7674 85.6261C83.6442 86.6647 84.8764 88.2874 84.5813 89.068C84.0593 88.6017 83.2162 87.7442 82.3959 87.0114C82.9342 87.9099 83.6735 88.8835 84.4646 89.7991C84.1307 90.0229 84.0594 91.0034 83.5892 90.4789C84.0561 89.9563 83.106 88.1678 82.3829 87.6263C82.4964 88.2498 82.9147 88.8323 82.8272 89.3806C82.1495 89.0885 81.8642 88.2071 81.4848 88.1814C81.501 88.6136 81.8739 88.9467 82.143 89.396C81.4167 90.209 83.3104 91.6917 82.3247 92.7952C81.981 92.2793 81.66 91.8881 81.5692 91.3893C81.7183 91.5226 81.9421 91.7224 82.0458 91.6063C81.9096 90.8581 81.2578 89.3361 80.4472 89.343C80.1295 89.9989 81.2838 90.5079 81.1444 91.1143C80.9952 90.9811 80.7942 90.9059 80.7131 91.1468C81.0796 91.7873 81.3195 92.4194 82.1399 93.1522C81.673 93.6748 81.7248 93.6168 81.2061 94.1975C80.7586 93.7978 80.8688 93.3742 80.8007 93.0001C81.0245 93.2 81.2028 93.1504 81.3357 92.8515C80.9693 92.2109 80.2365 90.9298 79.3805 90.6873C79.494 91.3107 80.2916 91.9188 80.4051 92.5423C79.7664 92.8071 79.5621 91.6848 79.0563 91.6506C79.3643 92.6567 79.9772 93.6219 80.8429 94.6041C80.5608 94.7698 80.496 95.4428 80.1458 95.2344C80.2755 93.8883 78.9201 93.3041 78.3008 92.6465C78.7353 93.6611 78.9915 94.7253 79.9318 95.7741C79.4941 96.114 79.3839 96.5377 78.7451 96.8024C79.0564 96.4539 78.0739 96.2028 78.4597 95.921C78.7872 96.0047 78.6478 96.6111 79.0337 96.3292C79.1568 95.2907 77.7982 93.6594 77.2535 93.0684C77.3897 93.8165 78.0317 94.5989 78.1679 95.3471C77.4546 95.5452 78.2911 96.7101 78.5311 97.3422C78.168 97.7487 77.8956 98.654 77.3379 98.6779C77.62 98.5122 76.7477 97.8375 77.4027 98.0049C78.6608 98.3978 78.0123 95.5213 76.6796 95.0618C76.6439 95.552 77.2179 95.9603 77.1822 96.4505C76.177 96.0747 77.4838 97.7641 76.978 97.7299C76.5597 97.1474 75.976 95.9995 75.5512 95.7245C75.7328 96.7221 76.5111 98.2526 77.4352 98.8692C77.1758 99.1596 76.9164 99.45 76.6116 99.491C76.55 98.8094 76.5629 98.1945 75.8172 97.5283C75.2595 97.5522 75.7588 97.8938 75.7523 98.2013C75.1784 97.793 74.9449 96.8536 74.1862 96.8023C74.5818 97.2601 74.799 97.7674 75.0682 98.2167C74.4294 98.4814 75.0487 99.1391 74.8866 99.6208C74.2673 98.9631 74.0403 97.7162 73.1843 97.4736C73.2978 98.0971 73.7679 98.6215 74.0598 99.1954C73.5118 99.9589 74.0663 101.29 74.4911 101.565C74.958 101.042 74.2349 100.5 74.3743 99.8941C74.6888 100.593 75.4768 100.461 75.4638 101.076C74.8477 101.466 74.4035 102.113 73.8329 102.752C73.46 102.419 73.353 101.488 73.6059 101.505C73.5994 101.812 73.9204 102.203 74.1798 101.913C73.8199 100.965 73.2719 99.3269 72.5488 98.7854C72.2829 99.3833 72.9541 99.9828 73.2459 100.557C72.6072 100.822 72.899 101.395 72.9898 101.894C72.364 101.544 72.4353 100.564 71.7512 100.579C72.0819 101.71 73.4795 103.898 71.8745 104.344C72.0722 103.372 71.1676 101.833 70.318 101.283C70.866 102.921 71.8064 103.97 71.1644 105.589C70.6261 104.69 70.5839 103.087 69.608 102.528C69.7604 103.708 70.2695 104.79 70.6002 105.92C70.2825 106.576 69.8739 106.733 69.5108 107.14C69.0179 106.491 69.6404 105.794 68.9692 105.194C68.2624 105.085 69.4329 106.026 68.7261 105.917C68.3824 105.401 68.0808 104.087 67.3447 104.161C68.2332 105.268 68.3856 106.448 69.0212 107.538C68.8591 108.02 68.1328 108.833 67.5459 109.039C67.3805 108.474 67.5329 107.253 67.0044 107.094C66.2781 107.907 67.9642 109.622 66.8715 109.794C66.6153 108.73 66.4466 107.118 65.3734 106.368C65.2664 107.838 67.6464 110.278 65.5291 110.997C66.0382 109.676 64.7087 107.862 63.9175 106.947C64.4655 108.585 65.915 110.715 64.6472 111.984C64.9552 110.589 63.9695 109.29 63.2139 107.885C63.3599 109.372 63.7587 110.877 64.5369 112.408C64.1349 112.257 64.0182 112.988 63.8107 113.221C63.548 112.464 63.7685 111.617 63.5058 110.86C62.6725 110.742 63.0486 109.721 62.2736 109.237C62.1213 110.459 63.5545 112.157 62.8282 112.97C62.6109 112.462 62.9352 111.499 62.2802 111.332C61.8522 112.411 62.7925 113.46 62.1862 114.589C62.0338 113.409 61.7679 111.605 60.6946 110.855C60.7887 112.401 61.8198 113.948 61.2816 115.452C60.98 114.138 60.8178 112.218 59.6473 111.277C59.7932 112.765 60.8633 114.869 60.2051 116.056C60.0981 115.125 59.4982 113.545 58.7005 112.937C59.1513 114.384 59.8549 115.848 59.0638 117.334C58.7038 116.386 59.7025 114.668 58.0488 113.817C58.1202 115.238 58.9535 117.758 57.2967 118.261C58.2986 117.59 57.3777 115.619 56.5281 115.069C56.5022 116.299 57.4685 118.519 56.5704 119.074C57.1767 117.945 55.9964 116.265 55.176 115.532C55.5295 116.787 56.8979 119.158 55.6949 119.754C55.8862 119.09 55.5198 118.449 55.3317 117.759C54.6184 117.957 54.8388 117.11 54.1385 116.693C53.6586 117.831 56.1716 119.971 54.693 120.426C54.7416 119.32 53.4867 117.573 52.7183 116.782C53.0425 118.22 54.1774 119.652 54.2488 121.073C54.0251 120.873 53.9148 121.297 53.7138 121.222C53.4511 120.465 52.9323 118.644 51.8688 118.634C52.5043 119.723 52.9388 120.738 53.0686 121.794C52.7346 122.018 52.446 122.491 51.9402 122.456C52.1963 121.119 50.9025 118.815 49.9265 118.256C50.5556 119.653 51.1555 121.233 51.8883 122.515C51.6808 122.747 51.4506 122.854 51.0939 122.954C50.4065 121.922 50.6691 120.277 48.9798 119.916C49.1841 121.039 51.1231 122.771 50.0401 123.683C49.9039 122.935 49.664 122.303 49.3495 121.604C49.1938 121.778 49.0155 121.828 48.8145 121.753C48.7982 121.321 48.4902 120.314 47.7314 120.263C48.1076 121.643 50.2639 123.883 48.7561 124.52C49.0058 123.49 48.0363 122.624 47.1122 122.007C47.3748 122.764 47.8158 123.471 47.952 124.219C47.631 123.828 47.31 123.437 46.9014 123.594C47.7964 124.393 47.5856 125.98 48.8567 125.758C48.7983 126.124 48.8145 126.556 48.8308 126.988C48.3541 126.771 48.7011 125.933 48.166 126.081C48.4384 127.577 48.9638 129.091 49.1097 130.579C49.2135 130.463 49.4372 130.662 49.5409 130.546C49.6058 129.873 49.3658 129.241 49.1778 128.551C49.7517 128.959 49.5896 129.441 49.9333 129.957C50.2154 129.791 50.4748 129.501 50.8476 129.834C50.8185 130.017 51.0422 130.217 51.1395 130.408C50.3386 131.154 49.207 130.77 48.3088 131.325C47.91 129.82 47.6732 127.834 46.1525 126.684C46.5449 128.496 49.0384 131.559 46.2661 132.111C45.5624 130.647 45.7051 128.686 44.5118 127.62C44.9982 128.577 44.3627 129.888 45.4652 130.456C45.1993 131.053 45.5657 131.694 45.4263 132.3C44.6222 132 45.2123 130.439 44.3044 130.254C44.2622 131.052 44.473 131.867 44.5573 132.673C44.2363 132.282 44.1261 132.705 43.8278 132.439C43.8926 131.766 43.7791 131.142 43.2862 130.493C43.2441 131.291 43.2538 132.03 43.5911 132.854C43.309 133.019 42.9977 133.368 42.5729 133.093C42.4076 132.528 42.4335 131.298 42.0314 131.147C41.6845 131.986 42.8583 133.974 41.4446 133.756C41.2792 133.19 41.6197 132.659 40.8966 132.118C40.728 132.907 41.3798 134.429 40.287 134.601C40.2773 133.862 40.1638 133.238 39.8493 132.539C39.4505 133.436 39.8623 134.326 39.7164 135.24C39.1295 135.447 38.6334 136.152 37.972 136.292C37.612 135.344 37.9363 134.381 37.197 133.407C37.2002 134.454 37.077 135.493 37.638 136.516C37.1257 136.789 36.6653 137.004 36.2275 137.344C35.1964 135.797 36.2988 133.962 34.5933 133.17C35.2742 134.509 35.3845 136.487 35.1867 137.459C34.736 136.012 33.8637 135.337 32.9688 134.538C32.985 134.97 33.5168 136.176 34.1037 135.969C34.2626 136.842 35.1511 137.949 34 138.487C33.4325 137.771 33.4228 137.032 32.7289 136.307C32.4566 137.213 33.9935 138.795 32.6706 139.075C31.9767 138.35 32.3236 137.512 31.5033 136.779C31.3574 137.693 32.1486 138.608 31.9508 139.58C31.2698 138.241 31.0201 136.869 29.8334 135.496C29.7264 136.967 32.3075 139.481 30.5695 140.226C30.456 139.602 30.469 138.987 29.9761 138.338C29.6519 139.302 30.7932 140.426 29.7913 141.097C29.2239 140.381 29.6065 139.052 28.7278 138.685C28.5008 139.84 29.8594 141.471 28.329 141.984C27.5897 141.01 27.661 140.029 26.7953 139.047C27.0514 140.111 27.3822 141.242 27.8913 142.323C27.7065 142.68 27.2817 142.405 27.0677 142.945C26.1728 142.146 26.39 140.251 25.3264 140.241C26.2441 141.165 25.8096 142.552 26.5327 143.094C26.3479 143.451 25.9912 143.55 25.7091 143.716C24.9925 142.867 25.012 141.944 24.117 141.145C24.4251 142.151 24.9115 143.107 25.2195 144.114C24.7299 144.512 24.2176 144.785 23.8026 145.249C23.0568 144.583 23.2092 143.362 22.2786 143.053C22.7196 143.76 22.6774 144.558 23.2968 145.215C23.0893 145.448 22.8817 145.68 22.5024 145.654C22.1651 144.831 21.7987 144.19 21.2248 143.782C21.2346 144.522 22.0549 145.255 22.243 145.945C21.254 146.001 21.2637 144.339 20.3915 143.664C20.4985 144.595 21.0303 145.801 21.7015 146.401C19.6426 146.754 19.8176 143.256 18.4395 142.547C19.1659 144.136 18.8416 145.099 20.6315 146.698C19.4902 147.976 18.4687 144.766 17.9046 145.097C18.472 145.813 18.6082 146.561 19.354 147.227C19.1692 147.584 18.9163 147.567 18.5888 147.484C18.2742 146.785 17.603 146.185 17.162 145.478C17.3501 146.168 17.629 147.357 18.4331 147.658C17.4539 148.454 16.2348 148.618 15.2102 149.164C13.9877 148.281 13.8807 147.35 13.0377 146.493C12.9663 147.473 14.0331 148.531 14.5941 149.554C14.2147 149.528 13.9099 149.569 13.576 149.793C12.8075 149.002 12.1784 147.605 11.6045 147.196C11.7115 148.127 12.1752 148.959 13.4495 149.784C13.0118 150.124 12.5741 150.464 12.0455 150.305C11.2025 149.448 10.6253 147.992 9.97679 147.518C10.233 148.582 11.0468 149.622 11.8607 150.662C11.3841 150.445 11.1182 151.043 10.6934 150.768C9.97036 150.227 9.32507 148.397 8.80302 147.931C8.80629 148.978 9.56829 150.076 10.2557 151.108C9.83095 150.833 9.73694 151.689 9.34135 151.231C9.65261 150.883 8.5469 149.268 8.17401 148.935C8.10917 149.608 8.78038 150.208 8.76742 150.823C8.06056 150.713 7.71359 149.15 7.31152 149C7.2175 149.856 7.80765 150.696 8.77716 151.562C8.59235 151.919 8.24216 151.711 8.05735 152.068C6.9095 151.252 6.44581 150.42 5.72921 149.571C5.70977 150.493 6.9549 151.501 7.18837 152.44C6.21238 151.882 5.89785 151.183 5.22665 150.584C5.52817 149.495 5.03204 147.799 4.03335 147.116C4.11767 147.922 5.46982 149.861 4.55544 149.984C5.09371 150.883 5.25261 151.755 6.14755 152.555C5.10024 152.977 3.91021 150.556 3.48544 150.281C3.21309 151.187 4.86676 152.037 4.79545 153.018C3.39469 152.184 3.12229 150.688 2.47379 150.213C2.26627 150.445 3.08016 151.485 2.35708 150.944C1.60155 149.538 0.807107 147.575 1.23509 146.496C1.42316 147.186 1.2708 148.407 2.07493 148.708C2.17542 147.545 1.1929 144.892 2.71686 144.687C2.60014 145.418 2.34402 146.756 3.40107 147.073C3.16759 146.134 2.64876 144.313 3.97168 144.033C3.72851 144.755 3.89715 146.368 4.70776 146.361C4.49698 145.546 3.81604 144.207 4.84065 143.66C4.79851 144.458 4.7953 145.813 5.82317 146.313C5.71615 145.382 4.57151 143.211 6.21544 143.322C5.99497 144.17 6.13117 144.918 6.46841 145.741C7.67461 146.192 7.30499 146.906 7.92431 147.564C8.02807 147.447 8.10265 147.514 8.2064 147.398C8.01833 146.708 7.71027 145.702 6.65322 145.384C7.35034 144.754 6.81207 143.855 7.64212 142.926C7.93722 144.547 8.46253 146.06 9.78223 147.135C9.22774 145.804 7.38272 143.216 8.83858 142.637C8.84832 143.377 8.77053 144.665 9.90216 145.049C9.54223 144.101 8.62133 142.13 10.0123 142.224C9.82105 142.888 9.74326 144.176 10.8522 144.436C10.3658 143.48 9.82427 141.534 11.3936 141.578C11.4779 142.385 11.2218 143.722 12.4053 144.048C12.0454 143.1 11.6855 142.152 11.8832 141.18C12.2918 141.023 12.7749 140.933 13.1607 140.651C13.5563 141.109 13.4169 141.715 13.3813 142.205C13.0538 142.122 13.1932 141.515 12.8073 141.797C12.736 142.778 13.7574 143.585 14.4059 144.06C14.0233 142.988 13.3099 140.784 14.4318 140.429C14.3669 141.102 14.4804 141.725 15.0252 142.316C15.4986 141.486 13.9162 139.655 15.5601 139.766C15.4661 140.622 15.4986 141.486 15.9623 142.318C16.4583 141.613 15.6347 139.833 16.2054 139.194C16.7209 139.968 16.4648 141.305 17.2171 141.664C17.9953 140.793 16.5296 138.23 18.5821 138.184C18.5691 138.799 18.8415 140.296 19.5549 140.098C19.2987 139.033 18.1638 137.602 19.6942 137.09C20.6508 138.571 20.2779 140.639 22.2818 141.698C22.0127 141.249 21.7435 140.8 21.2961 140.4C21.228 140.026 21.3998 140.284 21.5846 139.927C20.8453 138.953 20.5373 137.947 20.2292 136.941C20.5405 136.592 20.868 136.676 21.1047 136.261C21.6429 137.16 21.5522 139.062 22.8913 139.215C22.285 137.942 20.8745 136.369 22.366 135.299C22.7032 136.123 23.5041 137.778 24.5904 137.913C23.9775 136.948 23.0826 136.148 22.5962 135.192C22.781 134.835 23.1377 134.736 23.4198 134.57C23.8834 135.402 23.9548 136.823 25.161 137.274C24.6519 136.193 23.8899 135.094 23.8121 133.981C24.1623 134.189 24.2563 133.333 24.5773 133.725C24.7135 134.473 25.1578 136.227 26.4742 136.254C25.2291 135.247 25.1221 134.316 24.6875 133.301C24.9113 133.501 25.0215 133.077 25.2225 133.152C25.0085 133.692 25.7868 135.223 26.6784 134.975C25.6571 134.167 24.8269 132.695 25.7932 132.514C25.8094 132.946 26.5585 134.659 27.2556 134.029C25.5338 132.804 25.9845 131.849 27.1712 130.821C27.8943 131.362 28.4423 133 29.3567 132.877C28.893 132.046 27.8424 131.42 27.4598 130.348C27.81 130.556 27.8521 129.758 28.2542 129.909C29 130.575 29.8592 131.865 30.7509 131.617C30.1608 130.776 29.1329 130.276 28.7146 129.693C29.5673 128.889 30.3909 128.267 31.0718 127.205C31.9603 128.312 33.2929 128.771 34.0873 128.332C33.0659 127.524 32.3234 127.905 31.2566 126.848C31.9829 126.035 32.3104 123.717 33.0918 123.893C32.3493 124.274 34.2624 127.236 35.2708 126.257C34.191 125.814 33.7046 124.858 33.3155 124.093C33.4485 123.794 33.9122 124.625 33.9997 124.077C33.656 123.561 33.4031 123.544 32.9037 123.203C33.7402 121.966 34.2201 120.828 34.7064 119.383C35.5787 120.058 36.1591 120.159 36.0424 120.89C35.4393 120.664 35.3258 120.041 34.7389 120.248C34.8816 120.688 35.329 121.088 35.9775 121.563C36.4186 124.672 40.8154 125.153 42.5079 124.159C42.3652 123.719 42.3588 124.026 41.934 123.751C42.8484 123.628 44.3042 123.049 44.3237 122.127C43.1661 122.972 41.8659 123.377 40.4522 123.158C40.838 122.876 42.1772 123.029 41.7135 122.197C40.8964 122.511 39.9366 122.385 39.0968 122.574C39.4827 122.292 39.2362 121.968 39.3173 121.727C40.7829 121.887 42.5273 120.835 43.6362 121.095C43.1239 121.368 42.4398 121.384 41.9729 121.906C42.5014 122.065 42.443 122.431 42.9262 122.34C43.8016 121.66 44.7289 120.922 45.4909 119.619C45.118 119.286 44.6186 118.944 44.878 118.654C45.3093 118.622 45.7081 120.126 46.2853 119.18C45.8378 118.78 45.6433 118.398 44.9429 117.981C45.3482 116.777 46.7684 119.09 47.4363 118.642C47.3747 117.961 45.7891 117.484 46.0258 117.069C46.71 117.054 47.5076 117.662 48.2372 117.896C48.0264 117.081 47.2677 117.03 46.5673 116.613C47.3163 115.924 48.4577 117.048 49.2164 117.1C48.9765 116.468 48.0686 116.283 47.5465 115.817C47.6795 115.518 47.9778 115.784 48.088 115.361C48.9894 115.853 49.6833 116.577 50.2929 116.495C50.2832 115.755 49.0251 115.363 48.4739 115.079C48.6068 114.78 48.9051 115.046 49.0153 114.623C49.5957 114.724 50.5588 115.897 51.1165 115.873C51.0776 115.316 50.4064 114.717 49.5568 114.167C49.7643 113.935 49.9945 113.827 50.3512 113.728C51.2818 114.037 51.6417 114.985 52.4978 115.228C52.3097 114.538 51.512 113.929 50.6398 113.255C50.8473 113.022 51.1229 113.164 51.285 112.682C52.0081 113.224 52.7831 113.707 53.4899 113.817C53.1527 112.993 52.2675 112.934 51.6709 112.401C52.4717 111.654 53.25 113.185 54.0671 112.87C53.3667 112.454 53.3504 112.021 52.6501 111.605C53.2726 110.908 54.4367 112.156 55.1954 112.208C55.0592 111.46 54.174 111.4 53.5255 110.925C54.1545 109.92 55.0754 111.892 55.9509 111.212C55.0786 110.537 55.1759 110.728 54.3264 110.178C54.9262 109.357 56.0676 110.481 56.9755 110.665C56.7874 109.975 55.9314 109.733 55.3056 109.382C55.8665 108.004 57.4716 109.96 58.2887 109.646C58.0195 109.196 57.0371 108.945 56.3659 108.346C56.943 107.399 58.1071 108.648 58.9696 108.583C58.9306 108.026 57.4197 107.616 57.5526 107.317C58.3405 107.186 59.3619 107.994 60.0979 107.92C59.5824 107.147 58.7944 107.278 58.0941 106.861C58.3599 106.263 58.7912 106.231 59.0798 105.758C60.0622 106.009 61.2165 106.518 62.0563 106.328C61.0803 105.77 60.2016 105.403 59.4137 105.534C60.6945 103.65 62.2281 104.185 64.0148 104.736C63.3727 103.954 62.0628 103.619 61.3267 103.693C62.0822 102.697 63.4765 103.838 64.4719 103.474C63.8526 102.816 62.4032 103.088 62.5426 102.482C63.457 102.359 64.4168 102.485 65.4511 102.678C64.4816 101.812 63.9174 102.143 63.136 101.968C63.9433 100.914 65.3895 101.997 66.4368 101.575C65.61 101.149 64.8512 101.098 64.0698 100.922C64.3584 100.449 64.6696 100.101 65.049 100.126C65.3181 100.575 66.5016 100.902 67.0075 100.936C66.5146 100.287 65.9342 100.186 65.0555 99.8187C65.3667 99.4703 65.6261 99.1799 65.9309 99.1389C65.8272 99.255 65.798 99.4378 66.0736 99.5796C67.2506 100.213 68.1164 101.196 68.833 102.045C68.606 100.798 67.3673 99.4823 65.8855 98.8895C66.4627 97.9432 67.8148 99.882 68.4892 99.127C67.7889 98.7102 67.0885 98.2934 66.5308 98.3173C66.975 97.6699 67.4192 97.0225 68.0061 96.8158C68.1552 96.9491 69.5041 97.8408 69.8899 97.5589C69.1669 97.0174 68.5411 96.6672 67.9607 96.5665C68.8199 95.4545 69.3905 94.8156 70.0941 93.8779C71.0312 93.8796 71.6441 94.8447 72.312 94.3972C71.6635 93.9223 71.0831 93.8215 70.5319 93.538C71.0344 92.525 72.3185 94.0897 72.9183 93.2681C72.4644 93.1759 71.8386 92.8257 71.3846 92.7334C71.443 92.3679 71.5986 92.1937 72.0298 92.1612C72.2698 92.7933 73.3852 92.7454 73.7711 92.4636C73.1453 92.1134 72.6167 91.9546 72.0363 91.8538C72.3184 91.6881 72.487 90.8989 72.7626 91.0407C73.3301 91.7564 74.0142 91.7411 74.8248 91.7343C74.3093 90.9605 73.4176 91.2081 72.7172 90.7913C72.9247 90.559 73.0577 90.2601 73.2652 90.0278C74.2185 90.4617 75.1718 90.8956 75.9597 90.7641C74.961 90.0808 74.1504 90.0876 73.3171 89.9697C73.8488 88.774 75.9143 90.5146 76.2093 89.734C75.4117 89.1259 74.8021 89.2079 74.1471 89.0405C74.4876 88.5093 74.828 87.978 75.2949 87.4554C75.7943 87.797 76.8286 87.99 77.61 88.166C77.2728 87.3427 76.4557 87.6569 75.7845 87.0574C76.4589 86.3024 77.6003 87.4264 78.2909 87.1035C77.6262 86.1965 76.9356 86.5193 76.2287 86.41C76.8123 85.1562 78.171 86.7875 78.9881 86.4732C78.4433 85.8822 77.6392 85.5816 76.9842 85.4142C77.6359 84.5345 78.8 85.7832 79.5944 85.3442C78.9977 84.8112 78.0315 84.9923 77.7688 84.2356C78.4076 83.9708 79.3544 84.7122 79.9478 84.198C79.3966 83.9145 78.8907 83.8803 78.3168 83.472C78.9847 83.0245 79.857 83.6992 80.7778 83.2688C79.9802 82.6607 79.4452 82.8093 78.8648 82.7085C79.5165 81.8288 80.6351 82.8281 81.3258 82.5053C80.5573 81.7144 80.1196 82.0543 79.4419 81.7622C80.0417 80.9406 80.8913 81.4906 81.7246 81.6085C81.7667 80.8108 80.8977 81.1832 80.1001 80.5751C81.0145 80.4521 82.0942 80.8945 83.0313 80.8962C82.0845 80.1549 81.4003 80.1702 80.5962 79.8696C81.3225 79.0565 82.6422 80.131 83.5338 79.8833C82.9437 79.0429 81.8283 79.0907 81.0696 79.0394C81.7051 77.7276 82.9729 78.8601 83.8937 78.4297C83.1706 77.8882 82.681 78.2862 81.9807 77.8694C82.6097 76.865 83.5857 77.4236 84.4482 77.3587C84.1563 76.7848 83.3165 76.9743 82.7134 76.7489C82.9858 75.8435 84.6395 76.6942 85.3885 76.0059C84.6589 75.7718 84.0493 75.8538 83.3652 75.8692C83.2452 75.5532 83.5791 75.3294 83.764 74.9724C84.7918 75.4729 85.6381 74.9759 86.4779 74.7863C85.5246 74.3524 84.8567 74.7999 84.0752 74.6239C84.4578 73.295 86.2542 74.5864 87.0388 73.4078C86.2574 73.2319 85.6186 73.4966 84.7626 73.254C84.9701 73.0217 85.0512 72.7809 85.2068 72.6067C86.1601 73.0405 86.828 72.593 87.496 72.1455C86.7891 72.0362 86.1731 72.4256 85.4662 72.3163C85.411 71.3273 86.9221 71.7372 87.671 71.0489C88.7313 70.0121 88.9777 67.935 89.6878 66.6897C88.0698 67.7505 88.1996 71.2077 86.28 70.9549C87.4408 68.7548 88.4621 67.1612 89.1397 65.0516C89.9147 65.535 88.5107 66.056 89.3603 66.606C89.8693 65.2856 90.4432 63.2922 90.5502 61.8215C89.9406 61.9035 90.3751 62.9182 89.7655 63.0001C90.1027 61.4218 89.7038 59.9169 90.041 58.3386C90.2647 58.5385 90.4658 58.6136 90.6668 58.6888C90.722 59.6778 90.7771 60.6668 91.3899 61.6319C91.4548 60.9589 91.351 61.0751 92.0806 61.3091C92.1 60.3867 91.6882 59.4968 91.886 58.5248C92.7744 59.6317 91.8633 60.8018 92.4989 61.8916C92.2719 63.0463 91.4354 64.283 91.7143 65.4719C92.0612 64.6332 92.5865 63.7449 92.4276 62.8721C93.6435 61.661 91.8309 59.9375 92.9365 59.15C92.8263 59.5737 93.5332 59.683 93.4521 59.9238C93.8899 61.9856 92.447 64.3513 91.6819 67.0092C91.5781 67.1253 91.3544 66.9255 91.2506 67.0416C90.2812 68.5772 89.9342 69.4159 89.4025 70.6116C90.6962 70.5143 90.1223 67.7044 91.7597 68.1229C91.3641 67.6651 92.0775 67.467 92.2688 66.8025C93.0664 67.4106 93.9614 68.2101 94.6228 68.07C94.1591 67.2381 93.1248 67.0451 92.379 66.3789C92.5995 65.5317 93.4133 66.5719 93.7246 66.2235C93.6338 65.7247 93.1734 65.9399 92.7778 65.4821C92.9756 64.5102 93.8349 65.7999 94.1234 65.3267C94.2337 64.9031 93.4003 64.7852 93.1766 64.5854C93.235 64.2198 93.1896 63.9704 93.4262 63.5554C94.0974 64.1549 94.7233 64.5051 95.2129 64.1071C94.4606 63.7484 93.1052 63.1642 93.757 62.2845C94.3017 62.8755 95.1448 63.733 95.6117 63.2104C94.4573 62.7013 93.5916 61.7191 94.1168 60.8309C94.3568 61.4629 95.4852 63.2018 96.3607 62.522C96.1434 62.0147 95.3555 62.1462 94.7362 61.4885C95.3814 60.9163 96.5909 62.4144 97.2361 61.8422C97.0124 61.6423 96.7368 61.5005 96.7659 61.3178C99.1103 61.8456 100.342 58.6651 102.424 58.4362C102.379 58.1868 101.954 57.9118 102.139 57.5548C102.563 57.8298 102.988 58.1049 103.293 58.0639C103.478 57.7069 102.8 57.4148 102.427 57.0817C102.849 56.3096 103.841 57.3003 104.211 56.5863C103.883 56.5026 103.556 56.4189 103.205 56.2105C103.552 55.3718 104.441 56.4787 104.908 55.956C104.609 55.6896 104.259 55.4812 103.961 55.2147C104.577 54.8253 105.381 55.1259 105.945 54.7945C105.4 54.2035 105.141 54.4939 104.739 54.3436C104.947 54.1113 105.028 53.8704 105.183 53.6962C105.838 53.8636 106.441 54.0891 106.931 53.6911C106.386 53.1001 106.098 53.5732 105.524 53.1649C105.731 52.9326 105.812 52.6918 105.968 52.5176C106.616 52.9924 107.151 52.8439 107.664 52.5706C107.453 51.7558 106.548 52.6184 106.36 51.9283C106.902 51.4722 108.257 52.0564 108.351 51.2006C107.8 50.9171 107.609 51.5815 107.012 51.0486C107.417 49.8444 108.893 50.7446 109.009 50.0135C108.948 49.3319 107.79 50.1775 108.108 49.5215C108.523 49.0569 109.781 49.4498 109.771 48.7102C109.324 48.3105 109.081 49.033 108.61 48.5086C109.113 47.4957 110.692 48.2798 110.861 47.4906C110.339 47.0243 109.411 47.7622 109.453 46.9645C110.018 46.6331 111.35 47.0926 111.444 46.2368C110.968 46.0199 110.731 46.435 110.283 46.0352C110.28 44.9882 112.187 45.8559 112.132 44.8669C111.61 44.4006 111.366 45.1231 110.867 44.7815C111.272 43.5772 112.8 44.4194 112.968 43.6302C112.492 43.4133 112.128 43.8198 111.629 43.4782C112.005 42.4567 113.315 42.7915 113.432 42.0605C112.932 41.7188 112.689 42.4414 112.167 41.975C112.634 41.4523 113.244 41.3704 113.831 41.1637C114.784 41.5976 114.758 42.8274 115.397 42.5627C115.157 41.9307 114.359 41.3226 114.119 40.6905C113.688 40.723 113.354 40.9467 112.803 40.6632C113.283 39.5256 114.213 39.8348 114.904 39.5119C114.537 38.8714 113.685 39.6759 114.002 39.02C114.268 38.4221 115.423 38.9312 115.309 38.3077C114.839 37.7833 114.722 38.5144 114.297 38.2394C114.323 37.0095 115.724 37.8431 116.191 37.3204C115.617 36.9122 115.283 37.1359 114.806 36.919C115.108 35.8309 116.509 36.6645 116.574 35.9915C116.074 35.6498 115.792 35.8155 115.413 35.7899C115.812 34.8931 117.086 35.7182 117.18 34.8624C116.778 34.7121 116.444 34.9358 115.915 34.777C116.353 34.4371 116.107 34.1125 116.418 33.764C116.865 34.1638 117.079 33.624 117.332 33.6411C117.825 34.2902 118.564 35.2639 119.479 35.1409C118.704 34.6575 117.913 33.7419 117.511 33.5916C117.592 33.3507 117.874 33.185 117.725 33.0518C117.293 33.0842 116.885 33.2414 116.408 33.0244C116.933 32.1362 118.386 32.9117 118.555 32.1226C117.883 31.523 117.611 32.4283 116.963 31.9534C117.42 30.6911 118.999 31.4752 119.219 30.628C118.208 30.5596 118.558 30.768 117.725 30.6501C117.754 30.4674 117.783 30.2846 117.686 30.0933C118.279 29.5791 119.709 30.23 119.832 29.1914C121.71 30.242 122.397 31.2737 123.934 32.8555C123.846 33.4038 123.587 33.6942 123.632 33.9436ZM91.961 80.2063C92.1004 79.5999 91.4811 78.9423 91.5686 78.394C91.8378 78.8432 92.4863 79.3181 92.9175 79.2857C92.9629 79.5351 92.4604 80.548 91.961 80.2063ZM83.3104 91.6917C82.7656 91.1007 82.5257 90.4687 82.464 89.7871C82.8305 90.4277 83.9329 90.9948 83.3104 91.6917ZM76.1836 100.571C76.1739 99.8309 75.3762 99.2228 75.4929 98.4917C75.8302 99.315 77.2828 100.091 76.1836 100.571ZM127.021 25.7975C126.813 26.0298 126.68 26.3287 126.726 26.5781C125.717 25.1552 124.358 23.5239 123.191 23.6298C125.137 25.0544 126.829 26.4619 126.217 27.8985C126.327 27.4749 125.61 26.6259 124.79 25.8931C124.657 26.192 124.359 25.9255 124.248 26.3492C124.592 26.865 125.241 27.3399 125.331 27.8387C124.78 27.5551 124.621 26.6823 124.138 26.7728C123.947 27.4372 125.221 28.2623 125.886 29.1693C125.5 29.4512 125.798 29.7177 125.487 30.0661C125.536 28.9609 123.658 27.9104 123.707 26.8052C123.246 27.0204 122.507 26.0468 122.076 26.0792C122.137 26.7608 122.971 26.8787 123.597 27.2288C123.749 28.4092 124.942 29.4751 125.095 30.6554C124.715 30.6298 124.242 29.0583 123.178 29.048C123.671 29.6971 124.744 30.447 124.732 31.0619C124.239 30.4128 123.451 30.5443 122.728 30.0028C122.686 30.8005 125.276 31.653 124.193 32.5651C122.731 31.0499 120.964 29.5758 119.511 28.8002C119.43 29.0411 119.907 29.258 119.699 29.4903C119.223 29.2734 118.859 29.6799 118.36 29.3383C118.266 27.7924 120.39 29.1675 120.461 28.187C119.835 27.8369 119.42 28.3015 118.72 27.8847C119.223 26.8717 120.802 27.6558 120.97 26.8667C120.367 26.6412 119.826 27.0972 119.125 26.6804C119.764 26.4157 121.178 26.6344 121.272 25.7786C120.617 25.6112 120.173 26.2585 119.42 25.8998C119.566 24.986 121.502 25.671 121.671 24.8818C121.016 24.7144 120.399 25.1038 119.744 24.9364C120.633 23.6417 122.04 24.1678 123.373 24.6273C122.491 23.213 121.184 23.9252 120.254 23.616C120.594 23.0848 120.325 22.6356 120.613 22.1624C121.327 21.9643 122.235 22.1488 122.971 22.0753C122.001 21.2093 121.431 21.8481 120.604 21.4228C120.711 19.9521 122.329 21.293 123.026 20.6627C122.377 20.1878 121.434 20.4936 121.142 19.9196C121.7 19.8957 122.189 19.4977 122.844 19.6651C122.001 18.8076 121.631 19.5216 120.954 19.2295C121.145 18.5651 121.285 17.9587 121.424 17.3523C122.672 17.0056 124.063 17.0995 125.312 16.7528C123.83 16.1601 122.507 16.4402 121.356 16.9782C121.761 15.774 122.708 16.5153 123.159 15.5605C124.313 16.0695 125.198 16.1293 126.09 15.8817C125.091 15.1984 123.911 15.9192 123.506 14.7218C123.068 15.0617 122.727 15.5929 122.102 15.2427C122.799 14.6125 123.408 14.5305 123.846 14.1906C124.271 14.4656 125.662 14.5596 126.249 14.3529C126.793 14.9439 127.098 14.9029 127.114 15.3351C126.839 15.1933 126.667 14.9354 126.489 14.9849C126.67 15.9825 128.492 16.044 128.956 16.8759C128.807 16.7426 128.583 16.5428 128.48 16.6589C129.65 17.6001 130.879 18.1758 130.325 19.2468C129.692 19.2041 129.368 17.7658 128.862 17.7316C128.865 18.7787 130.72 19.7046 129.913 20.7585C129.063 20.2085 129.112 19.1033 128.204 18.9188C128.794 19.7592 129.005 20.574 129.52 21.3478C129.06 21.563 128.713 20.0001 127.812 19.5081C127.896 20.3144 129.336 21.7048 128.541 22.1438C128.343 20.7141 127.092 20.0137 126.22 19.339C125.759 19.5542 125.111 19.0793 124.725 19.3611C126.327 20.2699 128.681 21.5374 128.142 23.0406C127.241 22.5486 126.135 20.9344 124.842 21.0317C126.213 22.0481 126.631 22.6306 127.854 23.5137C127.52 23.7375 127.87 23.9459 127.611 24.2363C126.544 23.1789 125.535 21.756 124.264 21.978C125.114 22.528 126.239 23.2199 127.179 24.2687C127.248 24.6428 127.189 25.0083 127.004 25.3653C126.265 24.3916 125.516 22.6784 124.102 22.4597C125.02 23.3838 126.074 25.0561 127.021 25.7975ZM131.294 12.9079C130.746 13.6714 132.218 13.5246 132.429 14.3393C131.894 14.4879 131.177 13.639 130.477 13.2222C130.713 12.8071 130.898 12.4501 131.294 12.9079ZM131.501 12.6756C132.127 13.0258 132.633 13.0599 133.327 13.7842C132.643 13.7996 131.92 13.2581 131.501 12.6756ZM131.715 14.5375C130.921 14.9765 130.516 13.779 129.832 13.7944C130.247 13.3298 131.06 14.3701 131.715 14.5375ZM130.393 17.2192C129.297 16.3447 128.998 16.0782 127.925 15.3283C128.765 15.1387 130.055 16.3959 130.393 17.2192ZM132.779 19.3511C132.75 19.5338 132.675 19.4672 132.601 19.4006C132.601 19.4006 132.653 19.3425 132.779 19.3511C132.516 18.5943 133.596 16.6351 132.348 16.9819C133.149 16.2354 131.904 15.2276 133.042 15.3045C132.691 15.0961 132.52 14.8381 132.675 14.6639C133.032 14.5648 133.962 14.874 133.499 14.0421C134.066 14.7579 134.579 14.4846 134.235 13.9687C136.239 15.0278 134.108 18.7635 132.779 19.3511ZM136.248 6.16083C137.432 8.88876 137.678 11.615 135.947 14.4539C135.499 14.0542 135.052 13.6544 134.857 13.2718C135.305 13.6715 135.61 13.6305 135.869 13.3402C135.496 13.0071 134.922 12.5988 135.211 12.1256C135.561 12.3341 136.083 12.8004 136.268 12.4434C136.183 11.6371 134.89 11.7345 135.029 11.1281C135.558 11.2869 136.154 11.8199 136.472 11.164C135.973 10.8224 135.519 10.7301 135.049 10.2057C135.366 9.54976 136.008 10.3321 136.326 9.67618C135.781 9.08515 135.545 9.50023 135.12 9.22521C134.955 8.65981 136.436 9.25257 136.203 8.31309C135.853 8.10469 135.087 8.3609 134.997 7.86212C135.272 8.0039 136.038 7.74768 135.82 7.24036C135.321 6.89872 135.107 7.4385 134.51 6.90554C134.643 6.60663 135.668 6.06003 136.248 6.16083ZM134.105 12.9131C132.802 12.2708 131.55 11.5704 130.509 11.6848C130.535 10.455 130.561 9.22513 130.029 8.01917C129.643 8.30101 130.068 8.57602 129.637 8.60847C129.086 8.3249 128.995 7.82612 128.69 7.86711C128.804 8.49059 128.074 8.25656 127.575 7.91491C128.285 6.6697 129.867 8.50085 130.765 7.94572C129.617 7.1292 128.778 7.31879 127.652 6.62696C128.418 6.37076 130.117 7.47085 130.509 6.88155C129.309 6.1231 128.447 6.18799 127.39 5.87025C128.093 4.9325 129.77 5.90787 130.516 6.57407C131.08 6.24271 131.404 5.27932 131.855 4.32448C134.718 6.67324 134.773 10.0639 134.105 12.9131ZM133.777 5.62441C133.479 5.35794 133.486 5.05047 133.314 4.79255C133.612 5.05902 133.888 5.20079 134.141 5.21787C133.933 5.45018 133.709 5.25033 133.777 5.62441ZM133.55 1.9758C134.504 2.40969 134.322 3.8138 134.28 4.6115C133.654 4.26132 132.918 4.33474 132.5 3.75225C132.915 3.28766 132.989 3.35427 132.273 2.50531C131.945 2.42161 131.157 2.55312 131.067 2.05433C131.855 1.92282 133.904 3.23129 133.55 1.9758ZM130.318 2.74269C129.805 3.01599 130.914 3.27565 130.58 3.49942C129.925 3.332 129.624 4.42008 129.086 3.5216C129.621 3.373 130.156 3.2244 129.737 2.64191C129.886 2.77515 130.019 2.47621 130.318 2.74269ZM124.601 3.58812C125.172 2.94928 125.133 2.39243 125.863 2.62645C125.781 2.8673 125.149 2.82458 125.47 3.21576C126.566 4.09035 127.163 2.22165 128.262 1.74169C128.168 2.59747 128.505 3.42081 128.664 4.29367C127.267 4.50716 126.171 6.03422 125.036 7.00441C125.279 6.28187 124.994 5.40047 125.73 5.32704C125.201 5.16818 124.955 4.84361 125.065 4.41999C125.422 4.32093 125.921 4.66256 126.232 4.3141C126.083 4.18086 126.135 4.1228 125.986 3.98956C125.532 3.89732 125.101 3.92976 124.601 3.58812Z" fill="#5B6460"/>
</svg>
