<svg width="70" height="70" viewBox="0 0 70 70" fill="none" xmlns="http://www.w3.org/2000/svg">
<path d="M64.5 0H17.8333C17.189 0 16.6667 0.522375 16.6667 1.16667V12.8333C16.6705 16.0533 19.28 18.6629 22.5 18.6667H27.1667V22.1667H26C26.0012 21.5495 25.5215 21.0382 24.9057 21L6.239 19.8333C5.59587 19.7934 5.04215 20.2824 5.00219 20.9255C5.00073 20.9503 5 20.9751 5 21V25.6667C5 26.311 5.52238 26.8333 6.16667 26.8333H6.239L24.9057 25.6667C25.5215 25.6285 26.0012 25.1172 26 24.5H27.1667V26.8333C27.1667 27.4776 27.689 28 28.3333 28H30.6667V31.5C30.6667 32.1443 31.189 32.6667 31.8333 32.6667H33V33.8333C33 34.4776 33.5224 35 34.1667 35C34.811 35 35.3333 34.4776 35.3333 33.8333V32.6667H36.5C37.1443 32.6667 37.6667 32.1443 37.6667 31.5V28H40C40.6443 28 41.1667 27.4776 41.1667 26.8333V18.6667H47V51.3333H35.3333C38.5533 51.3295 41.1629 48.72 41.1667 45.5V38.5C41.1667 37.8557 40.6443 37.3333 40 37.3333H28.3333C27.689 37.3333 27.1667 37.8557 27.1667 38.5V39.6667H26C25.3557 39.6667 24.8333 40.189 24.8333 40.8333C24.8333 41.4776 25.3557 42 26 42H27.1667V45.5C27.1705 48.72 29.78 51.3295 33 51.3333H23.6667C20.4467 51.3371 17.8371 53.9467 17.8333 57.1667V68.8333C17.8333 69.4776 18.3557 70 19 70H64.5C65.1443 70 65.6667 69.4776 65.6667 68.8333V1.16667C65.6667 0.522375 65.1443 0 64.5 0ZM23.6667 23.4045L7.33333 24.4253V22.2413L23.6667 23.2622V23.4045ZM29.5 45.5V39.6667H38.8333V45.5C38.8333 47.433 37.2664 49 35.3333 49H33C31.067 49 29.5 47.433 29.5 45.5ZM47 67.6667H20.1667V57.1667C20.1667 55.2336 21.7336 53.6667 23.6667 53.6667H47V67.6667ZM35.3333 30.3333H33V28H35.3333V30.3333ZM38.8333 25.6667H29.5V18.6667H38.8333V25.6667ZM63.3333 67.6667H49.3333V17.5C49.3333 16.8557 48.811 16.3333 48.1667 16.3333H22.5C20.567 16.3333 19 14.7664 19 12.8333V2.33333H63.3333V67.6667Z" fill="white"/>
<path d="M55.1668 15.1667C58.3884 15.1667 61.0002 12.5549 61.0002 9.33333C61.0002 6.11173 58.3884 3.5 55.1668 3.5C51.9452 3.5 49.3335 6.11173 49.3335 9.33333C49.3373 12.5533 51.9468 15.1629 55.1668 15.1667ZM55.1668 8.16667H51.8815C52.3741 6.77323 53.689 5.83946 55.1668 5.83333C57.0999 5.82531 58.6732 7.38588 58.6813 9.31875C58.6893 11.2518 57.1287 12.8252 55.1959 12.8332C53.7073 12.8393 52.3778 11.9034 51.8815 10.4999H55.1668C55.8111 10.4999 56.3335 9.97748 56.3335 9.33319C56.3335 8.6889 55.8111 8.16667 55.1668 8.16667Z" fill="white"/>
<path d="M52.8332 25.6667C52.1889 25.6667 51.6665 26.189 51.6665 26.8333V29.1667C51.6665 29.8109 52.1889 30.3333 52.8332 30.3333C53.4775 30.3333 53.9998 29.8109 53.9998 29.1667V26.8333C53.9998 26.189 53.4775 25.6667 52.8332 25.6667Z" fill="white"/>
<path d="M52.8332 32.6667C52.1889 32.6667 51.6665 33.189 51.6665 33.8333V36.1667C51.6665 36.8109 52.1889 37.3333 52.8332 37.3333C53.4775 37.3333 53.9998 36.8109 53.9998 36.1667V33.8333C53.9998 33.189 53.4775 32.6667 52.8332 32.6667Z" fill="white"/>
<path d="M52.8332 39.6667C52.1889 39.6667 51.6665 40.189 51.6665 40.8333V43.1667C51.6665 43.8109 52.1889 44.3333 52.8332 44.3333C53.4775 44.3333 53.9998 43.8109 53.9998 43.1667V40.8333C53.9998 40.189 53.4775 39.6667 52.8332 39.6667Z" fill="white"/>
</svg>
