<svg width="70" height="70" viewBox="0 0 70 70" fill="none" xmlns="http://www.w3.org/2000/svg">
<path d="M68.8333 15.1667H43.1667C42.5224 15.1667 42 15.689 42 16.3333V44.3333H36.1667V43.1667H37.3333C37.9776 43.1667 38.5 42.6443 38.5 42C38.5 41.3557 37.9776 40.8333 37.3333 40.8333H25.6667C25.0224 40.8333 24.5 41.3557 24.5 42C24.5 42.6443 25.0224 43.1667 25.6667 43.1667H26.8333V44.3333H15.1667V43.1667H16.3333C16.9776 43.1667 17.5 42.6443 17.5 42C17.5 41.3557 16.9776 40.8333 16.3333 40.8333H4.66667C4.02237 40.8333 3.5 41.3557 3.5 42C3.5 42.6443 4.02237 43.1667 4.66667 43.1667H5.83333V44.3333H1.16667C0.522375 44.3333 0 44.8557 0 45.5V68.8333C0 69.4776 0.522375 70 1.16667 70H68.8333C69.4776 70 70 69.4776 70 68.8333V16.3333C70 15.689 69.4776 15.1667 68.8333 15.1667ZM29.1667 43.1667H33.8333V44.3333H29.1667V43.1667ZM8.16667 43.1667H12.8333V44.3333H8.16667V43.1667ZM18.6667 67.6667H2.33333V53.6667H18.6667V67.6667ZM18.6667 51.3333H2.33333V46.6667H18.6667V51.3333ZM42 67.6667H21V46.6667H42V67.6667ZM67.6667 67.6667H44.3333V36.1667H67.6667V67.6667ZM67.6667 33.8333H44.3333V17.5H67.6667V33.8333Z" fill="white"/>
<path d="M24.5002 65.3333H38.5002C39.1445 65.3333 39.6668 64.811 39.6668 64.1667V50.1667C39.6668 49.5224 39.1445 49 38.5002 49H24.5002C23.8559 49 23.3335 49.5224 23.3335 50.1667V64.1667C23.3335 64.811 23.8559 65.3333 24.5002 65.3333ZM25.6668 51.3333H37.3335V63H25.6668V51.3333Z" fill="white"/>
<path d="M46.6667 32.6667C47.311 32.6667 47.8333 32.1443 47.8333 31.5V26.8333C47.8333 26.189 47.311 25.6667 46.6667 25.6667C46.0224 25.6667 45.5 26.189 45.5 26.8333V31.5C45.5 32.1443 46.0224 32.6667 46.6667 32.6667Z" fill="white"/>
<path d="M46.6667 44.3333C47.311 44.3333 47.8333 43.811 47.8333 43.1667V38.5C47.8333 37.8557 47.311 37.3333 46.6667 37.3333C46.0224 37.3333 45.5 37.8557 45.5 38.5V43.1667C45.5 43.811 46.0224 44.3333 46.6667 44.3333Z" fill="white"/>
<path d="M2.75036 20.7287C2.96065 20.9043 3.22592 21.0003 3.49994 21H38.4999C39.1442 21.0009 39.6673 20.4794 39.6684 19.8351C39.6688 19.5612 39.5727 19.2958 39.3971 19.0855L27.7304 5.0855C27.5083 4.81965 27.1796 4.66623 26.8333 4.66667H25.6666V1.16667C25.6666 0.522375 25.1442 0 24.4999 0H17.4999C16.8557 0 16.3333 0.522375 16.3333 1.16667V4.66667H15.1666C14.8203 4.66623 14.4915 4.81965 14.2694 5.0855L2.60278 19.0855C2.18978 19.58 2.25584 20.3157 2.75036 20.7287ZM18.6666 2.33333H23.3333V4.66667H18.6666V2.33333ZM15.7138 7H26.2861L36.0091 18.6667H5.99078L15.7138 7Z" fill="white"/>
</svg>
