<svg width="49" height="49" viewBox="0 0 49 49" fill="none" xmlns="http://www.w3.org/2000/svg">
<g clip-path="url(#clip0_2_465)">
<path d="M33.933 9.71606C30.192 9.71706 26.782 11.1351 24.212 13.4641C21.64 11.1381 18.232 9.71907 14.495 9.71907C14.464 9.71907 14.432 9.71907 14.402 9.71907C6.444 9.77107 0 16.2451 0 24.2141C0 32.2151 6.494 38.7081 14.494 38.7081C18.231 38.7081 21.639 37.2911 24.21 34.9631C23.673 34.4781 23.187 33.9411 22.728 33.3791H25.721C25.27 33.9321 24.778 34.4501 24.249 34.9321H24.247C24.235 34.9451 24.222 34.9531 24.21 34.9641C26.783 37.2941 30.195 38.7141 33.938 38.7131C41.943 38.7101 48.43 32.2181 48.428 24.2141C48.428 24.2111 48.428 24.2091 48.428 24.2071C48.429 16.2031 41.938 9.71406 33.933 9.71606ZM22.894 14.9611H25.649C26.055 15.4531 26.432 15.9711 26.774 16.5131H21.859C22.176 15.9951 22.524 15.4621 22.894 14.9611ZM21.003 18.0351H27.61C27.845 18.5371 28.053 19.0561 28.235 19.5881H20.22C20.3 19.4381 20.58 18.8341 21.003 18.0351ZM5.917 27.9061L6.796 22.3641L4.813 27.9061H3.75L3.612 22.3641L2.673 27.9061H1.184L2.418 20.5561H4.67L4.749 25.0661L6.27 20.5561H8.713L7.496 27.9061H5.917ZM11.182 27.8941L11.233 27.3071C11.209 27.3101 10.739 28.0161 9.65 28.0161C9.08 28.0161 8.16 27.7051 8.16 26.3531C8.16 24.6341 9.562 24.0641 10.897 24.0641C11.107 24.0641 11.56 24.1021 11.56 24.1021C11.56 24.1021 11.611 23.9971 11.611 23.7131C11.611 23.2461 11.191 23.1821 10.616 23.1821C9.603 23.1821 8.934 23.4531 8.934 23.4531L9.158 22.1231C9.158 22.1231 9.97 21.7831 11.027 21.7831C11.574 21.7831 13.147 21.8411 13.147 23.6441L12.541 27.8941H11.182ZM16.925 26.0221C16.925 28.0731 14.938 27.9851 14.591 27.9851C13.296 27.9851 12.896 27.8061 12.859 27.7961L13.065 26.4461C13.067 26.4341 13.715 26.6811 14.436 26.6811C14.852 26.6811 15.392 26.6401 15.392 26.1431C15.392 25.3991 13.46 25.5771 13.46 23.8101C13.46 22.2511 14.618 21.7951 15.76 21.7951C16.642 21.7951 17.184 21.9161 17.184 21.9161L16.989 23.2781C16.989 23.2781 16.152 23.2091 15.935 23.2091C15.386 23.2091 15.087 23.3291 15.087 23.7131C15.086 24.4851 16.925 24.1071 16.925 26.0221ZM19.311 26.5601C19.448 26.5601 19.603 26.5131 19.709 26.5131L19.516 27.8241C19.361 27.8671 18.922 28.0231 18.359 28.0271C17.64 28.0331 17.129 27.6311 17.129 26.7191C17.129 26.1071 18.006 21.0641 18.04 21.0311H19.583L19.426 21.9331H20.196L19.999 23.3861H19.182L18.748 26.0631C18.715 26.2761 18.774 26.5601 19.311 26.5601ZM22.705 21.7631C24.399 21.7631 24.906 23.0031 24.906 24.0201C24.906 24.4271 24.702 25.4271 24.702 25.4271H21.566C21.566 25.4271 21.276 26.6621 22.933 26.6621C23.71 26.6621 24.572 26.2821 24.572 26.2821L24.3 27.7691C24.3 27.7691 23.802 28.0231 22.67 28.0231C21.443 28.0231 20.004 27.5041 20.004 25.3241C20.005 23.4351 21.153 21.7631 22.705 21.7631ZM26.792 31.8861H21.65C21.337 31.3861 21.045 30.8731 20.794 30.3341H27.637C27.385 30.8701 27.103 31.3881 26.792 31.8861ZM26.447 27.9171H24.863L25.826 21.9351H27.263L27.125 22.8021C27.125 22.8021 27.637 21.8591 28.328 21.8591C28.529 21.8591 28.626 21.8791 28.626 21.8791C28.421 22.2971 28.24 22.6801 28.052 23.6691C26.98 23.2891 26.898 25.3621 26.447 27.9171ZM32.482 27.8241C32.482 27.8241 31.652 28.0361 31.132 28.0361C29.29 28.0361 28.355 26.7651 28.355 24.8401C28.355 21.9371 30.088 20.3911 31.869 20.3911C32.674 20.3911 33.607 20.7691 33.607 20.7691L33.355 22.4041C33.355 22.4041 32.724 21.9631 31.939 21.9631C30.889 21.9631 29.947 22.9651 29.947 24.7861C29.947 25.6831 30.386 26.5191 31.482 26.5191C32.003 26.5191 32.758 26.1401 32.758 26.1401L32.482 27.8241ZM36.197 27.8971L36.249 27.3061C36.224 27.3091 35.754 28.0151 34.666 28.0151C34.096 28.0151 33.176 27.7041 33.176 26.3521C33.176 24.6331 34.578 24.0631 35.912 24.0631C36.122 24.0631 36.576 24.1011 36.576 24.1011C36.576 24.1011 36.628 23.9971 36.628 23.7131C36.628 23.2461 36.208 23.1821 35.632 23.1821C34.619 23.1821 33.951 23.4531 33.951 23.4531L34.175 22.1231C34.175 22.1231 34.987 21.7831 36.045 21.7831C36.591 21.7831 38.165 21.8411 38.164 23.6441L37.558 27.8941C37.557 27.8971 36.197 27.8971 36.197 27.8971ZM39.404 27.9171H37.82L38.783 21.9351H40.221L40.083 22.8021C40.083 22.8021 40.596 21.8591 41.287 21.8591C41.488 21.8591 41.584 21.8791 41.584 21.8791C41.38 22.2971 41.197 22.6801 41.01 23.6691C39.937 23.2891 39.855 25.3621 39.404 27.9171ZM44.133 27.9011L44.2 27.3501C44.2 27.3501 43.688 27.9961 42.762 27.9961C41.479 27.9961 40.85 26.7571 40.85 25.4911C40.85 23.5331 42.028 21.8261 43.442 21.8261C44.352 21.8281 44.933 22.6311 44.933 22.6311L45.267 20.5661L46.814 20.5631L45.634 27.9011H44.133ZM47.185 27.6941C47.144 27.7681 47.086 27.8251 47.012 27.8691C46.939 27.9101 46.861 27.9311 46.779 27.9311C46.699 27.9311 46.622 27.9101 46.548 27.8691C46.474 27.8251 46.416 27.7681 46.375 27.6941C46.333 27.6191 46.313 27.5431 46.313 27.4621C46.313 27.3801 46.334 27.3021 46.375 27.2281C46.416 27.1541 46.477 27.0941 46.55 27.0541C46.626 27.0131 46.701 26.9921 46.779 26.9921C46.859 26.9921 46.935 27.0131 47.009 27.0541C47.085 27.0951 47.143 27.1521 47.185 27.2281C47.228 27.3031 47.247 27.3811 47.247 27.4621C47.247 27.5431 47.227 27.6201 47.185 27.6941Z" fill="#E9ECE0"/>
<path d="M47.0611 32.117C47.0511 32.11 47.0421 32.099 47.0261 32.093C47.0101 32.087 46.985 32.084 46.946 32.084H46.8521V32.234H46.952C46.999 32.234 47.03 32.23 47.048 32.213C47.065 32.199 47.0731 32.182 47.0731 32.158C47.0731 32.142 47.0691 32.131 47.0611 32.117Z" fill="#E9ECE0"/>
<path d="M47.3838 32.027C47.3408 31.949 47.2818 31.894 47.2068 31.853C47.1318 31.812 47.0558 31.791 46.9778 31.791C46.8978 31.791 46.8218 31.812 46.7478 31.853C46.6738 31.894 46.6128 31.951 46.5718 32.027C46.5288 32.101 46.5098 32.179 46.5098 32.259C46.5098 32.339 46.5308 32.418 46.5718 32.491C46.6148 32.565 46.6728 32.625 46.7458 32.666C46.8198 32.707 46.8978 32.728 46.9798 32.728C47.0598 32.728 47.1378 32.707 47.2108 32.666C47.2838 32.625 47.3428 32.565 47.3838 32.491C47.4258 32.418 47.4458 32.34 47.4458 32.259C47.4458 32.178 47.4248 32.1 47.3838 32.027ZM47.0958 32.519L47.0518 32.44C47.0168 32.378 46.9878 32.337 46.9658 32.321C46.9518 32.311 46.9298 32.303 46.9018 32.303H46.8548V32.518H46.7728V32.013H46.9468C47.0068 32.013 47.0498 32.018 47.0738 32.028C47.1008 32.038 47.1238 32.052 47.1378 32.077C47.1538 32.1 47.1608 32.125 47.1608 32.151C47.1608 32.188 47.1468 32.219 47.1218 32.248C47.0958 32.274 47.0598 32.291 47.0168 32.294C47.0348 32.3 47.0488 32.31 47.0598 32.321C47.0808 32.341 47.1048 32.374 47.1348 32.42L47.1968 32.519H47.0958Z" fill="#E9ECE0"/>
<path d="M11.0221 25.2109C9.89111 25.2109 9.66211 25.7189 9.66211 26.1419C9.66211 26.3599 9.78711 26.7239 10.2661 26.7239C11.1951 26.7239 11.3881 25.5059 11.3581 25.2469C11.3141 25.2379 11.2861 25.2119 11.0221 25.2109Z" fill="#E9ECE0"/>
<path d="M22.711 23.144C21.87 23.144 21.708 24.101 21.708 24.202H23.421C23.421 24.125 23.582 23.144 22.711 23.144Z" fill="#E9ECE0"/>
<path d="M43.7091 23.311C43.0301 23.311 42.4931 24.099 42.4941 25.296C42.4941 26.026 42.7541 26.494 43.3101 26.494C44.1461 26.494 44.5491 25.403 44.5491 24.59C44.5491 23.693 44.2641 23.311 43.7091 23.311Z" fill="#E9ECE0"/>
<path d="M47.1152 27.268C47.0802 27.206 47.0312 27.158 46.9692 27.123C46.9072 27.088 46.8442 27.071 46.7782 27.071C46.7142 27.071 46.6492 27.089 46.5872 27.123C46.5252 27.155 46.4762 27.205 46.4412 27.268C46.4062 27.331 46.3882 27.398 46.3882 27.463C46.3882 27.53 46.4062 27.596 46.4392 27.657C46.4762 27.719 46.5232 27.766 46.5852 27.803C46.6472 27.837 46.7112 27.857 46.7782 27.857C46.8452 27.857 46.9112 27.837 46.9712 27.803C47.0332 27.768 47.0812 27.72 47.1172 27.657C47.1522 27.595 47.1682 27.53 47.1682 27.463C47.1682 27.397 47.1502 27.331 47.1152 27.268ZM46.8982 27.72L46.8532 27.642C46.8182 27.579 46.7902 27.539 46.7692 27.524C46.7522 27.511 46.7322 27.505 46.7032 27.505H46.6572V27.719H46.5732V27.215H46.7482C46.8072 27.215 46.8512 27.22 46.8762 27.231C46.9012 27.24 46.9232 27.257 46.9402 27.279C46.9572 27.301 46.9632 27.326 46.9632 27.353C46.9632 27.39 46.9492 27.421 46.9232 27.449C46.8972 27.478 46.8612 27.49 46.8192 27.495C46.8392 27.503 46.8522 27.512 46.8622 27.521C46.8832 27.542 46.9072 27.572 46.9362 27.62L46.9982 27.72H46.8982Z" fill="#E9ECE0"/>
<path d="M36.0392 25.2109C34.9082 25.2109 34.6792 25.7189 34.6792 26.1419C34.6792 26.3599 34.8032 26.7239 35.2832 26.7239C36.2122 26.7239 36.4042 25.5059 36.3752 25.2469C36.3302 25.2379 36.3022 25.2119 36.0392 25.2109Z" fill="#E9ECE0"/>
<path d="M46.8642 27.318C46.8562 27.308 46.8452 27.3 46.8302 27.293C46.8132 27.288 46.7882 27.283 46.7482 27.283V27.284H46.6572V27.436H46.7562C46.8032 27.436 46.8342 27.43 46.8532 27.415C46.8682 27.4 46.8772 27.381 46.8772 27.359C46.8772 27.342 46.8732 27.332 46.8642 27.318Z" fill="#E9ECE0"/>
</g>
<defs>
<clipPath id="clip0_2_465">
<rect width="48.428" height="48.428" fill="white"/>
</clipPath>
</defs>
</svg>
