<svg width="70" height="70" viewBox="0 0 70 70" fill="none" xmlns="http://www.w3.org/2000/svg">
<g clip-path="url(#clip0_2_210)">
<path d="M34.9999 0C20.2042 0 8.1665 12.6654 8.1665 28.2334C8.1665 43.4898 33.1133 68.5966 34.1751 69.6594C34.4026 69.8857 34.7013 70.0001 34.9999 70.0001C35.2986 70.0001 35.5972 69.8858 35.8247 69.6583C36.8863 68.5967 61.8333 43.49 61.8333 28.2335C61.8333 12.6654 49.7956 0 34.9999 0ZM34.9999 67.1627C30.6377 62.6384 10.4999 41.0491 10.4999 28.2334C10.4999 13.9521 21.4911 2.33338 34.9999 2.33338C48.5087 2.33338 59.4999 13.9521 59.4999 28.2334C59.4999 41.0434 39.3609 62.6371 34.9999 67.1627Z" fill="white"/>
<path d="M35 5.83337C23.4209 5.83337 14 15.2543 14 26.8334C14 38.4125 23.4209 47.8334 35 47.8334C46.5791 47.8334 56 38.4125 56 26.8334C56 15.2543 46.5791 5.83337 35 5.83337ZM35 45.5C24.7064 45.5 16.3334 37.1257 16.3334 26.8334C16.3334 16.5411 24.7064 8.16662 35 8.16662C45.2936 8.16662 53.6666 16.5409 53.6666 26.8332C53.6666 37.1256 45.2936 45.5 35 45.5Z" fill="white"/>
<path d="M35.0001 57.1666C34.3562 57.1666 33.8335 57.6892 33.8335 58.3332V68.8332C33.8335 69.4771 34.3562 69.9998 35.0001 69.9998C35.6441 69.9998 36.1668 69.4771 36.1668 68.8332V58.3332C36.1668 57.6892 35.6441 57.1666 35.0001 57.1666Z" fill="white"/>
<path d="M37.3332 18.6667H32.6666C32.0227 18.6667 31.5 19.1894 31.5 19.8333V24.5001C31.5 25.144 32.0227 25.6667 32.6666 25.6667H37.3332C39.2629 25.6667 40.8332 24.0963 40.8332 22.1667C40.8332 20.237 39.2629 18.6667 37.3332 18.6667ZM37.3332 23.3334H33.8332V21.0001H37.3332C37.9772 21.0001 38.4999 21.5238 38.4999 22.1667C38.4999 22.8095 37.9772 23.3334 37.3332 23.3334Z" fill="white"/>
<path d="M37.3335 14H28.0001C27.3562 14 26.8335 14.5227 26.8335 15.1666V38.5C26.8335 39.1439 27.3562 39.6666 28.0001 39.6666H32.6667C33.3107 39.6666 33.8334 39.1439 33.8334 38.5V30.3334H37.3334C41.8367 30.3334 45.5 26.67 45.5 22.1668C45.5 17.6635 41.8367 14 37.3335 14ZM37.3335 28H32.6669C32.0229 28 31.5003 28.5227 31.5003 29.1666V37.3332H29.1669V16.3332H37.3335C40.5499 16.3332 43.1669 18.95 43.1669 22.1666C43.1667 25.3832 40.5499 28 37.3335 28Z" fill="white"/>
<path d="M68.8337 67.6666H64.1671C63.5232 67.6666 63.0005 68.1892 63.0005 68.8332C63.0005 69.4771 63.5232 69.9998 64.1671 69.9998H68.8337C69.4777 69.9998 70.0004 69.4771 70.0004 68.8332C70.0004 68.1892 69.4777 67.6666 68.8337 67.6666Z" fill="white"/>
<path d="M28 67.6666H1.16662C0.522676 67.6666 0 68.1892 0 68.8332C0 69.4771 0.522676 69.9999 1.16662 69.9999H28C28.6439 69.9999 29.1666 69.4772 29.1666 68.8333C29.1666 68.1894 28.6439 67.6666 28 67.6666Z" fill="white"/>
<path d="M56.0001 67.6666H42.0001C41.3562 67.6666 40.8335 68.1892 40.8335 68.8332C40.8335 69.4771 41.3562 69.9999 42.0001 69.9999H56.0001C56.6441 69.9999 57.1667 69.4772 57.1667 68.8333C57.1667 68.1894 56.6441 67.6666 56.0001 67.6666Z" fill="white"/>
</g>
<defs>
<clipPath id="clip0_2_210">
<rect width="70" height="70" fill="white"/>
</clipPath>
</defs>
</svg>
