<svg width="51" height="51" viewBox="0 0 51 51" fill="none" xmlns="http://www.w3.org/2000/svg">
<g clip-path="url(#clip0_2_493)">
<path d="M9.03518 20.604C8.87018 20.273 8.60918 20 8.28518 19.795C7.94718 19.588 7.54818 19.443 7.09218 19.357C6.62818 19.273 6.09218 19.235 5.47118 19.229L2.60418 19.231C2.30618 19.235 2.01418 19.467 1.94418 19.755L0.0151799 28.157C-0.0548201 28.441 0.13218 28.679 0.43018 28.679H1.80318C2.10118 28.679 2.39618 28.448 2.46218 28.157L2.93318 26.117C2.99618 25.833 3.29018 25.596 3.59118 25.596H3.98418C5.66318 25.594 6.96318 25.251 7.89718 24.564C8.83618 23.876 9.29918 22.967 9.29918 21.841C9.29818 21.348 9.21718 20.934 9.03518 20.604ZM6.07418 23.349C5.65918 23.653 5.08218 23.805 4.33818 23.805H4.00218C3.70318 23.805 3.52018 23.569 3.58518 23.281L3.99818 21.497C4.05618 21.211 4.35718 20.974 4.65218 20.976L5.10218 20.973C5.62718 20.973 6.02818 21.064 6.29618 21.24C6.56118 21.414 6.69418 21.691 6.69218 22.058C6.70018 22.616 6.48718 23.045 6.07418 23.349Z" fill="#E9ECE0"/>
<path d="M48.1752 19.8871L48.0892 19.9131L47.9742 19.9291L47.8332 19.9071L47.7612 19.8371L47.7282 19.7271L47.7262 19.5621V18.9511H48.1852V18.7621H47.7262V18.3811H47.4992V18.7621H47.3452V18.9511H47.4992V19.6621L47.6052 20.0141L47.9172 20.1261L48.0482 20.1151L48.1872 20.0881V19.8871H48.1752Z" fill="#E9ECE0"/>
<path d="M50.3041 18.8591L49.9761 18.7241L49.7341 18.7731L49.4881 18.9391L49.3451 18.7801L49.1131 18.7251L48.8901 18.7741L48.6791 18.9101V18.7621H48.4561V20.0971H48.6781V19.1001L48.8651 18.9841L49.0511 18.9381L49.2031 18.9651L49.2781 19.0421L49.3111 19.1701L49.3221 19.3351V20.0981H49.5451V19.2441L49.5411 19.1731L49.5371 19.1081L49.7271 18.9871L49.9151 18.9401L50.0621 18.9671L50.1421 19.0441L50.1701 19.1731L50.1851 19.3361V20.0991H50.4091V19.2321L50.3041 18.8591Z" fill="#E9ECE0"/>
<path d="M15.6561 21.8049C15.1381 21.5129 14.3201 21.3669 13.2021 21.3669C12.6491 21.3669 12.0981 21.4099 11.5411 21.4959C11.1301 21.5589 11.0901 21.5709 10.8371 21.6259C10.3151 21.7399 10.2331 22.2609 10.2331 22.2609L10.0651 22.9519C9.97011 23.3929 10.2241 23.3759 10.3301 23.3389C10.5581 23.2709 10.6851 23.2009 11.1511 23.0969C11.5961 22.9959 12.0651 22.9199 12.4371 22.9249C12.9861 22.9249 13.4061 22.9829 13.6861 23.1009C13.9621 23.2209 14.1001 23.4269 14.1001 23.7249L14.0761 23.9189L13.8781 24.0409C13.0991 24.0899 12.5361 24.1619 11.8531 24.2609C11.1851 24.3539 10.5991 24.5169 10.1121 24.7399C9.58911 24.9699 9.20111 25.2789 8.93011 25.6719C8.66811 26.0669 8.53711 26.5459 8.53711 27.1079C8.53711 27.6369 8.72711 28.0739 9.09611 28.4119C9.46711 28.7439 9.95711 28.9059 10.5431 28.9059C10.9141 28.9039 11.2011 28.8749 11.4051 28.8259L12.0701 28.5969L12.6331 28.2849L13.1511 27.9429L13.1581 27.9529L13.1061 28.1729L13.1031 28.1819V28.1839C13.0471 28.4519 13.2091 28.6719 13.4701 28.6979L13.4751 28.7039H13.4991H14.5521H14.7501L14.7681 28.6959C15.0421 28.6639 15.2991 28.4439 15.3591 28.1819L16.3601 23.8489L16.4121 23.4959L16.4361 23.1649C16.4401 22.5509 16.1751 22.0959 15.6561 21.8049ZM13.4421 26.6769L13.2281 26.9589L12.6881 27.2379C12.4341 27.3409 12.1931 27.3929 11.9701 27.3929C11.6321 27.3929 11.3671 27.3439 11.1881 27.2439L10.9231 26.7289C10.9231 26.4499 10.9871 26.2289 11.1241 26.0589L11.7061 25.6629C11.9551 25.5789 12.2591 25.5079 12.6111 25.4589C12.9251 25.4199 13.5451 25.3489 13.6261 25.3469L13.7211 25.5139C13.7021 25.6089 13.5261 26.3449 13.4421 26.6769Z" fill="#E9ECE0"/>
<path d="M40.5941 21.8111C40.0731 21.5191 39.2561 21.3721 38.1411 21.3721C37.5881 21.3721 37.0361 21.4151 36.4811 21.5041C36.0691 21.5641 36.0281 21.5771 35.7741 21.6311C35.2531 21.7441 35.1721 22.2671 35.1721 22.2671L35.0041 22.9571C34.9101 23.3981 35.1581 23.3781 35.2741 23.3441C35.5031 23.2761 35.6261 23.2091 36.0881 23.1011C36.5311 23.0011 37.0041 22.9271 37.3771 22.9291C37.9241 22.9291 38.3441 22.9881 38.6231 23.1061C38.9011 23.2261 39.0371 23.4341 39.0371 23.7291L39.0161 23.9221L38.8201 24.0471C38.0331 24.0941 37.4691 24.1661 36.7931 24.2651C36.1271 24.3581 35.5391 24.5201 35.0511 24.7441C34.5301 24.9751 34.1371 25.2841 33.8691 25.6781C33.6041 26.0731 33.4751 26.5511 33.4751 27.1081C33.4751 27.6411 33.6631 28.0781 34.0371 28.4141C34.4101 28.7451 34.8951 28.9111 35.4811 28.9111C35.8501 28.9071 36.1371 28.8831 36.3421 28.8301L37.0051 28.6041L37.5731 28.2921L38.0871 27.9461L38.0961 27.9571L38.0491 28.1791L38.0441 28.1831L38.0461 28.1871C37.9841 28.4551 38.1471 28.6771 38.4111 28.7011L38.4131 28.7061H38.4371C38.6101 28.7061 39.2081 28.7061 39.4931 28.7061H39.6871L39.7081 28.6991C39.9791 28.6661 40.2351 28.4461 40.2921 28.1811L41.2961 23.8541L41.3491 23.4991L41.3781 23.1671C41.3791 22.5551 41.1171 22.1021 40.5941 21.8111ZM38.3851 26.6831L38.1621 26.9681L37.6271 27.2451C37.3731 27.3471 37.1311 27.4001 36.9121 27.4001C36.5631 27.4001 36.3051 27.3501 36.1311 27.2501L35.8631 26.7371C35.8631 26.4571 35.9281 26.2381 36.0591 26.0651C36.1921 25.9021 36.3951 25.7681 36.6471 25.6701C36.8931 25.5861 37.1971 25.5181 37.5511 25.4671C37.8631 25.4281 38.4811 25.3551 38.5611 25.3541L38.6581 25.5211C38.6441 25.6161 38.4671 26.3491 38.3851 26.6831Z" fill="#E9ECE0"/>
<path d="M33.969 20.635C33.797 20.302 33.539 20.033 33.213 19.823C32.879 19.615 32.483 19.469 32.02 19.385C31.565 19.304 31.022 19.26 30.405 19.259L27.534 19.261C27.235 19.266 26.948 19.498 26.879 19.783L24.948 28.189C24.878 28.474 25.07 28.71 25.362 28.71L26.737 28.708C27.029 28.71 27.328 28.476 27.397 28.188L27.862 26.147C27.93 25.863 28.225 25.624 28.522 25.626H28.915C30.596 25.626 31.899 25.28 32.837 24.595C33.764 23.902 34.233 22.995 34.233 21.868C34.228 21.377 34.143 20.962 33.969 20.635ZM31.008 23.384C30.594 23.682 30.016 23.834 29.276 23.834H28.934C28.639 23.837 28.448 23.597 28.514 23.311L28.93 21.53C28.991 21.245 29.289 21.006 29.586 21.009L30.031 21.006C30.559 21.009 30.955 21.096 31.225 21.272C31.494 21.448 31.621 21.724 31.624 22.09C31.627 22.648 31.42 23.078 31.008 23.384Z" fill="#E9ECE0"/>
<path d="M45.7419 19.85C45.8049 19.563 45.6249 19.33 45.3299 19.334H44.0999C43.8479 19.334 43.6209 19.521 43.5099 19.751L43.4419 19.857L43.3799 20.129L41.6609 27.943L41.6049 28.183L41.6069 28.189C41.5499 28.446 41.7079 28.64 41.9519 28.677L41.9729 28.706H43.2499C43.4999 28.706 43.7349 28.516 43.8419 28.282L43.9079 28.182L45.7459 19.851L45.7419 19.85Z" fill="#E9ECE0"/>
<path d="M24.9862 21.472C24.6612 21.476 23.3402 21.472 23.3402 21.472C23.0442 21.472 22.6642 21.711 22.4762 21.996C22.4762 21.996 20.5102 25.37 20.3192 25.709L20.0912 25.706L19.4792 22.019C19.4112 21.729 19.1082 21.481 18.7312 21.481L17.5012 21.483C17.2052 21.483 17.0232 21.719 17.0902 22.007C17.0902 22.007 18.0242 27.322 18.2112 28.573C18.2982 29.263 18.2002 29.386 18.2002 29.386L16.9842 31.504C16.8042 31.792 16.9012 32.027 17.1962 32.027L18.6182 32.025C18.9142 32.025 19.3032 31.792 19.4792 31.503L24.9492 22.251C24.9492 22.252 25.4752 21.461 24.9862 21.472Z" fill="#E9ECE0"/>
</g>
<defs>
<clipPath id="clip0_2_493">
<rect width="50.409" height="50.409" fill="white"/>
</clipPath>
</defs>
</svg>
