<svg width="70" height="70" viewBox="0 0 70 70" fill="none" xmlns="http://www.w3.org/2000/svg">
<path d="M58.9168 0C56.9838 0 55.4168 1.56698 55.4168 3.5V4.66667H29.7502C26.5302 4.67046 23.9206 7.28 23.9168 10.5V16.3333H21.5835C19.6505 16.3333 18.0835 17.9003 18.0835 19.8333V23.8525C13.0016 26.9849 9.90983 32.5303 9.91683 38.5V39.8813C8.52339 40.374 7.58962 41.6888 7.5835 43.1667V45.5C7.5835 46.1443 8.10587 46.6667 8.75016 46.6667H46.0835C46.7278 46.6667 47.2502 46.1443 47.2502 45.5V43.1667C47.244 41.6888 46.3103 40.374 44.9168 39.8813V38.5C44.9237 33.8543 43.076 29.3981 39.7835 26.1205C38.8685 25.2382 37.8499 24.47 36.7502 23.8327V19.8333C36.7502 17.9003 35.1832 16.3333 33.2502 16.3333H30.9168V12.8333C30.9168 12.189 31.4392 11.6667 32.0835 11.6667H55.4168V14C55.4168 15.933 56.9838 17.5 58.9168 17.5H62.4168V0H58.9168ZM44.9168 43.1667V44.3333H9.91683V43.1667C9.91683 42.5224 10.4392 42 11.0835 42H43.7502C44.3945 42 44.9168 42.5224 44.9168 43.1667ZM38.1397 27.7737C40.9907 30.6144 42.5902 34.4753 42.5835 38.5V39.6667H12.2502V38.5C12.2464 33.2284 15.0297 28.3477 19.5687 25.6667H35.2732C36.3167 26.2405 37.2806 26.9488 38.1397 27.7737ZM33.2502 18.6667C33.8945 18.6667 34.4168 19.189 34.4168 19.8333V23.3333H20.4168V19.8333C20.4168 19.189 20.9392 18.6667 21.5835 18.6667H33.2502ZM55.4168 9.33333H32.0835C30.1505 9.33333 28.5835 10.9003 28.5835 12.8333V16.3333H26.2502V10.5C26.2502 8.56698 27.8171 7 29.7502 7H55.4168V9.33333ZM60.0835 15.1667H58.9168C58.2725 15.1667 57.7502 14.6443 57.7502 14V3.5C57.7502 2.85571 58.2725 2.33333 58.9168 2.33333H60.0835V15.1667Z" fill="white"/>
<path d="M27.4167 49C26.7724 49 26.25 49.5224 26.25 50.1667V54.8333C26.25 55.4776 26.7724 56 27.4167 56C28.061 56 28.5833 55.4776 28.5833 54.8333V50.1667C28.5833 49.5224 28.061 49 27.4167 49Z" fill="white"/>
<path d="M27.4167 58.3334C26.7724 58.3334 26.25 58.8557 26.25 59.5V64.1667C26.25 64.811 26.7724 65.3334 27.4167 65.3334C28.061 65.3334 28.5833 64.811 28.5833 64.1667V59.5C28.5833 58.8557 28.061 58.3334 27.4167 58.3334Z" fill="white"/>
<path d="M41.4167 53.6666C40.7724 53.6666 40.25 54.189 40.25 54.8333V59.5C40.25 60.1443 40.7724 60.6666 41.4167 60.6666C42.061 60.6666 42.5833 60.1443 42.5833 59.5V54.8333C42.5833 54.189 42.061 53.6666 41.4167 53.6666Z" fill="white"/>
<path d="M32.0832 53.6666C31.4389 53.6666 30.9165 54.189 30.9165 54.8333V59.5C30.9165 60.1443 31.4389 60.6666 32.0832 60.6666C32.7275 60.6666 33.2498 60.1443 33.2498 59.5V54.8333C33.2498 54.189 32.7275 53.6666 32.0832 53.6666Z" fill="white"/>
<path d="M22.7502 53.6666C22.1059 53.6666 21.5835 54.189 21.5835 54.8333V59.5C21.5835 60.1443 22.1059 60.6666 22.7502 60.6666C23.3945 60.6666 23.9168 60.1443 23.9168 59.5V54.8333C23.9168 54.189 23.3945 53.6666 22.7502 53.6666Z" fill="white"/>
<path d="M13.4167 53.6666C12.7724 53.6666 12.25 54.189 12.25 54.8333V59.5C12.25 60.1443 12.7724 60.6666 13.4167 60.6666C14.061 60.6666 14.5833 60.1443 14.5833 59.5V54.8333C14.5833 54.189 14.061 53.6666 13.4167 53.6666Z" fill="white"/>
<path d="M18.0832 49C17.4389 49 16.9165 49.5224 16.9165 50.1667V54.8333C16.9165 55.4776 17.4389 56 18.0832 56C18.7275 56 19.2498 55.4776 19.2498 54.8333V50.1667C19.2498 49.5224 18.7275 49 18.0832 49Z" fill="white"/>
<path d="M36.7502 49C36.1059 49 35.5835 49.5224 35.5835 50.1667V54.8333C35.5835 55.4776 36.1059 56 36.7502 56C37.3945 56 37.9168 55.4776 37.9168 54.8333V50.1667C37.9168 49.5224 37.3945 49 36.7502 49Z" fill="white"/>
<path d="M36.7502 58.3334C36.1059 58.3334 35.5835 58.8557 35.5835 59.5V64.1667C35.5835 64.811 36.1059 65.3334 36.7502 65.3334C37.3945 65.3334 37.9168 64.811 37.9168 64.1667V59.5C37.9168 58.8557 37.3945 58.3334 36.7502 58.3334Z" fill="white"/>
<path d="M18.0832 58.3334C17.4389 58.3334 16.9165 58.8557 16.9165 59.5V64.1667C16.9165 64.811 17.4389 65.3334 18.0832 65.3334C18.7275 65.3334 19.2498 64.811 19.2498 64.1667V59.5C19.2498 58.8557 18.7275 58.3334 18.0832 58.3334Z" fill="white"/>
<path d="M22.7502 63C22.1059 63 21.5835 63.5224 21.5835 64.1667V68.8333C21.5835 69.4776 22.1059 70 22.7502 70C23.3945 70 23.9168 69.4776 23.9168 68.8333V64.1667C23.9168 63.5224 23.3945 63 22.7502 63Z" fill="white"/>
<path d="M32.0832 63C31.4389 63 30.9165 63.5224 30.9165 64.1667V68.8333C30.9165 69.4776 31.4389 70 32.0832 70C32.7275 70 33.2498 69.4776 33.2498 68.8333V64.1667C33.2498 63.5224 32.7275 63 32.0832 63Z" fill="white"/>
</svg>
