<svg width="70" height="70" viewBox="0 0 70 70" fill="none" xmlns="http://www.w3.org/2000/svg">
<path d="M30.6252 70C21.7789 70 14.5835 62.8017 14.5835 53.9583C14.5835 49.1925 16.7506 44.6221 20.4168 41.5858V10.2083C20.4168 4.57917 24.996 0 30.6252 0C36.2543 0 40.8335 4.57917 40.8335 10.2083V41.5858C44.4997 44.6221 46.6668 49.1925 46.6668 53.9583C46.6668 62.8017 39.4714 70 30.6252 70ZM30.6252 2.91667C26.606 2.91667 23.3335 6.18917 23.3335 10.2083V42.2917C23.3335 42.7496 23.1177 43.1813 22.7531 43.4554C19.4631 45.9317 17.5002 49.8575 17.5002 53.9583C17.5002 61.1946 23.3889 67.0833 30.6252 67.0833C37.8614 67.0833 43.7502 61.1946 43.7502 53.9583C43.7502 49.8575 41.7872 45.9317 38.4972 43.4554C38.1327 43.1813 37.9168 42.7496 37.9168 42.2917V10.2083C37.9168 6.18917 34.6443 2.91667 30.6252 2.91667Z" fill="white"/>
<path d="M30.6252 61.2499C26.606 61.2499 23.3335 57.9804 23.3335 53.9583C23.3335 49.9362 26.606 46.6666 30.6252 46.6666C34.6443 46.6666 37.9168 49.9362 37.9168 53.9583C37.9168 57.9804 34.6443 61.2499 30.6252 61.2499ZM30.6252 49.5833C28.2131 49.5833 26.2502 51.5462 26.2502 53.9583C26.2502 56.3704 28.2131 58.3333 30.6252 58.3333C33.0372 58.3333 35.0002 56.3704 35.0002 53.9583C35.0002 51.5462 33.0372 49.5833 30.6252 49.5833Z" fill="white"/>
<path d="M30.6248 49.5834C29.8198 49.5834 29.1665 48.93 29.1665 48.125V16.0417C29.1665 15.2367 29.8198 14.5834 30.6248 14.5834C31.4298 14.5834 32.0832 15.2367 32.0832 16.0417V48.125C32.0832 48.93 31.4298 49.5834 30.6248 49.5834Z" fill="white"/>
<path d="M53.9582 11.6667H48.1248C47.3198 11.6667 46.6665 11.0133 46.6665 10.2083C46.6665 9.40333 47.3198 8.75 48.1248 8.75H53.9582C54.7632 8.75 55.4165 9.40333 55.4165 10.2083C55.4165 11.0133 54.7632 11.6667 53.9582 11.6667Z" fill="white"/>
<path d="M53.9582 23.3333H48.1248C47.3198 23.3333 46.6665 22.68 46.6665 21.875C46.6665 21.07 47.3198 20.4166 48.1248 20.4166H53.9582C54.7632 20.4166 55.4165 21.07 55.4165 21.875C55.4165 22.68 54.7632 23.3333 53.9582 23.3333Z" fill="white"/>
<path d="M53.9582 35H48.1248C47.3198 35 46.6665 34.3467 46.6665 33.5417C46.6665 32.7367 47.3198 32.0834 48.1248 32.0834H53.9582C54.7632 32.0834 55.4165 32.7367 55.4165 33.5417C55.4165 34.3467 54.7632 35 53.9582 35Z" fill="white"/>
</svg>
