<svg width="70" height="70" viewBox="0 0 70 70" fill="none" xmlns="http://www.w3.org/2000/svg">
<g clip-path="url(#clip0_2_131)">
<path d="M50.1667 32.6666H49V30.3333H50.1667C52.0997 30.3333 53.6667 28.7663 53.6667 26.8333V6.78528C55.4856 6.14463 56.4409 4.15065 55.8001 2.33167C55.3071 0.932258 53.9837 -0.00282549 52.5 -5.46594e-05H17.5C15.5715 -0.00370049 14.0053 1.55672 14.0016 3.48522C13.9987 4.96892 14.9339 6.29236 16.3333 6.78528V26.8333C16.3333 28.7663 17.9003 30.3333 19.8333 30.3333H21V32.6666H19.8333C16.6133 32.6704 14.0038 35.2799 14 38.4999C14 39.1442 14.5224 39.6666 15.1667 39.6666C15.1438 47.4627 19.7167 54.5401 26.8333 57.7231V68.8333C26.8333 69.4775 27.3557 69.9999 28 69.9999H42C42.6443 69.9999 43.1667 69.4775 43.1667 68.8333V57.7231C50.2823 54.539 54.8548 47.4623 54.8333 39.6666C55.4776 39.6666 56 39.1442 56 38.4999C55.9962 35.2799 53.3867 32.6704 50.1667 32.6666ZM16.3333 3.49994C16.3333 2.85565 16.8557 2.33328 17.5 2.33328H52.5C53.1443 2.33328 53.6667 2.85565 53.6667 3.49994C53.6667 4.14424 53.1443 4.66661 52.5 4.66661H17.5C16.8557 4.66661 16.3333 4.14424 16.3333 3.49994ZM19.8333 27.9999C19.189 27.9999 18.6667 27.4776 18.6667 26.8333V6.99994H51.3333V26.8333C51.3333 27.4776 50.811 27.9999 50.1667 27.9999H19.8333ZM46.6667 30.3333V32.6666H23.3333V30.3333H46.6667ZM29.1667 67.6666V58.6273L29.2752 58.6564C29.3918 58.6914 29.5085 58.7183 29.6252 58.7509C30.0522 58.8723 30.4834 58.9789 30.919 59.0706C31.1278 59.1149 31.3378 59.1511 31.5478 59.1873C31.9083 59.2503 32.2712 59.3039 32.6363 59.3448C32.858 59.3716 33.0773 59.3996 33.3013 59.4183C33.7766 59.4579 34.2529 59.4805 34.7305 59.4859C34.8192 59.4859 34.9055 59.4988 34.9942 59.4988C35.0828 59.4988 35.1703 59.4871 35.259 59.4859C35.7366 59.4805 36.2126 59.4579 36.687 59.4183C36.911 59.3996 37.1327 59.3704 37.3555 59.3448C37.7172 59.3016 38.0765 59.2503 38.4347 59.1884C38.6482 59.1511 38.8617 59.1126 39.074 59.0718C39.4987 58.9843 39.9175 58.8781 40.3328 58.7614C40.4623 58.7253 40.5942 58.6961 40.7237 58.6576C40.7575 58.6471 40.7937 58.6401 40.8275 58.6296L40.8333 67.6666H29.1667ZM41.5567 55.8891C38.4164 57.1554 34.9771 57.4868 31.6528 56.8434C30.5515 56.6315 29.4741 56.3107 28.4363 55.8856C21.8116 53.2313 17.4772 46.8032 17.5 39.6666H52.5C52.5222 46.806 48.1848 53.2358 41.5567 55.8891ZM16.5328 37.3333C17.0291 35.9359 18.3505 35.0017 19.8333 34.9999H50.1667C51.6495 35.0017 52.9709 35.9359 53.4672 37.3333H16.5328Z" fill="white"/>
<path d="M30.3333 10.5H26.6186C25.9744 8.67751 23.9745 7.72245 22.1522 8.36688C20.3299 9.01132 19.3747 11.0108 20.019 12.8333C20.6632 14.6558 22.6631 15.6109 24.4854 14.9664C25.4822 14.6141 26.2662 13.83 26.6185 12.8333H30.3333C30.9776 12.8333 31.5 12.3109 31.5 11.6667C31.5 11.0224 30.9776 10.5 30.3333 10.5ZM23.3333 12.8333C22.689 12.8333 22.1666 12.3109 22.1666 11.6667C22.1666 11.0224 22.689 10.5 23.3333 10.5C23.9776 10.5 24.5 11.0224 24.5 11.6667C24.5 12.3109 23.9776 12.8333 23.3333 12.8333Z" fill="white"/>
</g>
<defs>
<clipPath id="clip0_2_131">
<rect width="70" height="70" fill="white"/>
</clipPath>
</defs>
</svg>
