<svg width="70" height="70" viewBox="0 0 70 70" fill="none" xmlns="http://www.w3.org/2000/svg">
<g clip-path="url(#clip0_2_177)">
<path d="M70 19.833C69.9948 15.3248 66.3415 11.6715 61.8333 11.6664H26.8333C26.117 11.6638 25.4038 11.7616 24.7146 11.9569C24.2783 12.0619 12.754 16.4065 5.92314 18.986H5.91381C4.58245 19.3576 3.37091 20.0697 2.39864 21.0522C0.854201 22.5782 -0.0104261 24.6619 -2.25233e-05 26.833C0.00191412 29.7033 1.51173 32.3614 3.97598 33.833C1.51277 35.3057 0.0033087 37.9632 -2.25233e-05 40.833C0.00453597 43.7041 1.51636 46.3618 3.98181 47.833C0.826681 49.7135 -0.682842 53.4705 0.294121 57.0112C1.27108 60.5519 4.49363 63.0033 8.16664 62.9997H43.1666C44.3737 62.9987 45.5652 62.7276 46.6538 62.2064C46.6624 62.2069 46.6709 62.2069 46.6795 62.2064L65.45 55.1562C68.1306 53.8356 69.8733 51.1535 69.9909 48.1676C70.1085 45.1816 68.582 42.3708 66.0135 40.8435C66.5957 40.5061 67.1291 40.0908 67.599 39.6092C69.1431 38.0848 70.0085 36.0029 70 33.833C69.9898 30.9662 68.4807 28.3137 66.0217 26.84C66.6013 26.5028 67.1326 26.0888 67.6013 25.6092C69.1446 24.0844 70.0091 22.0025 70 19.833ZM25.3575 14.1992C25.8379 14.0649 26.3345 13.9978 26.8333 13.9997H61.8333C65.0534 14.0036 67.6628 16.613 67.6667 19.833C67.6738 21.3813 67.0569 22.8671 65.9552 23.9549C65.5588 24.3674 65.0947 24.7091 64.5831 24.9652C64.5201 24.999 64.4665 25.0305 64.407 25.0609C62.8332 25.6442 60.0623 26.6849 55.7678 28.2972L50.5831 30.2444C51.7487 27.7166 51.5455 24.7692 50.0441 22.4253C48.5427 20.0814 45.9502 18.6645 43.1666 18.6664H13.384C19.1928 16.4789 24.8826 14.3497 25.3575 14.1992V14.1992ZM2.33331 26.833C2.32666 25.282 2.9458 23.7939 4.05064 22.7054C4.75584 21.9894 5.64018 21.4757 6.61148 21.2179C6.64064 21.2085 6.67448 21.198 6.70831 21.1852C7.18434 21.0605 7.67455 20.9981 8.16664 20.9997H43.1666C46.3867 21.0036 48.9961 23.613 49 26.833C48.9915 29.0157 47.7735 31.0137 45.8372 32.0212C45.803 32.0343 45.7695 32.0491 45.7368 32.0655C44.9391 32.4646 44.0586 32.6704 43.1666 32.6664H8.16664C4.94658 32.6625 2.33717 30.0531 2.33331 26.833V26.833ZM2.33331 40.833C2.33909 37.6138 4.94738 35.0055 8.16664 34.9997H43.1666C46.3867 35.0036 48.9961 37.613 49 40.833C48.9915 43.0157 47.7735 45.0137 45.8372 46.0212C45.803 46.0343 45.7695 46.0491 45.7368 46.0655C44.9391 46.4646 44.0586 46.6704 43.1666 46.6664H8.16664C4.94658 46.6625 2.33717 44.0531 2.33331 40.833ZM8.16664 60.6664C4.94498 60.6664 2.33331 58.0547 2.33331 54.833C2.33331 51.6114 4.94498 48.9997 8.16664 48.9997H43.1666C46.3883 48.9997 49 51.6114 49 54.833C49 58.0547 46.3883 60.6664 43.1666 60.6664H8.16664ZM67.6667 47.833C67.6737 49.381 67.0573 50.8666 65.9563 51.9549C65.5369 52.3796 65.0549 52.7376 64.5271 53.0165L50.575 58.249C52.3135 54.5128 50.9791 50.0667 47.4705 47.9054L62.8705 42.128C65.6373 42.6217 67.6557 45.0226 67.6667 47.833V47.833ZM67.6667 33.833C67.6738 35.3813 67.0569 36.8671 65.9552 37.9549C65.5588 38.3674 65.0947 38.7091 64.5831 38.9652C64.519 39.0002 64.4583 39.0317 64.4046 39.062L50.582 44.2455C52.3099 40.508 50.974 36.0687 47.4705 33.9054L56.5833 30.4824C59.2456 29.4825 61.3142 28.7055 62.8833 28.1187C65.6452 28.6241 67.6552 31.0253 67.6667 33.833V33.833Z" fill="white"/>
<path d="M45.5002 26.833C45.5002 26.1887 44.9778 25.6663 44.3335 25.6663H7.00016C6.35583 25.6663 5.8335 26.1887 5.8335 26.833C5.8335 27.4773 6.35583 27.9997 7.00016 27.9997H44.3335C44.9778 27.9997 45.5002 27.4773 45.5002 26.833Z" fill="white"/>
<path d="M45.5002 40.8331C45.5002 40.1888 44.9778 39.6664 44.3335 39.6664H7.00016C6.35583 39.6664 5.8335 40.1888 5.8335 40.8331C5.8335 41.4774 6.35583 41.9997 7.00016 41.9997H44.3335C44.9778 41.9997 45.5002 41.4774 45.5002 40.8331Z" fill="white"/>
<path d="M44.3335 53.6665H7.00016C6.35583 53.6665 5.8335 54.1888 5.8335 54.8332C5.8335 55.4775 6.35583 55.9998 7.00016 55.9998H44.3335C44.9778 55.9998 45.5002 55.4775 45.5002 54.8332C45.5002 54.1888 44.9778 53.6665 44.3335 53.6665Z" fill="white"/>
<path d="M11.6667 2.33319C11.0223 2.33319 10.5 2.85553 10.5 3.49986V5.83319C10.5 6.47752 11.0223 6.99986 11.6667 6.99986C12.311 6.99986 12.8333 6.47752 12.8333 5.83319V3.49986C12.8333 2.85553 12.311 2.33319 11.6667 2.33319Z" fill="white"/>
<path d="M10.5 12.8334C10.5 13.4777 11.0223 14.0001 11.6667 14.0001C12.311 14.0001 12.8333 13.4777 12.8333 12.8334V10.5C12.8333 9.85571 12.311 9.33337 11.6667 9.33337C11.0223 9.33337 10.5 9.85571 10.5 10.5V12.8334Z" fill="white"/>
<path d="M9.33349 6.99982H7.00016C6.35583 6.99982 5.8335 7.52215 5.8335 8.16649C5.8335 8.81082 6.35583 9.33316 7.00016 9.33316H9.33349C9.97782 9.33316 10.5002 8.81082 10.5002 8.16649C10.5002 7.52215 9.97782 6.99982 9.33349 6.99982Z" fill="white"/>
<path d="M14.0002 9.33316H16.3335C16.9778 9.33316 17.5002 8.81082 17.5002 8.16649C17.5002 7.52215 16.9778 6.99982 16.3335 6.99982H14.0002C13.3558 6.99982 12.8335 7.52215 12.8335 8.16649C12.8335 8.81082 13.3558 9.33316 14.0002 9.33316Z" fill="white"/>
<path d="M67.9078 63.9253C67.4501 63.4831 66.7224 63.4895 66.2724 63.9395C65.8223 64.3895 65.816 65.1172 66.2582 65.5749L68.0082 67.325C68.4659 67.7671 69.1936 67.7608 69.6436 67.3107C70.0936 66.8607 70.1 66.1331 69.6578 65.6753L67.9078 63.9253Z" fill="white"/>
<path d="M62.7586 62.0748C63.2164 62.5169 63.9441 62.5106 64.3941 62.0606C64.8441 61.6105 64.8504 60.8829 64.4083 60.4251L62.6583 58.6751C62.2005 58.233 61.4729 58.2393 61.0229 58.6893C60.5728 59.1393 60.5665 59.867 61.0087 60.3248L62.7586 62.0748Z" fill="white"/>
<path d="M61.0086 67.3249C61.4642 67.7804 62.2027 67.7804 62.6582 67.3249L64.4082 65.5749C64.8504 65.1172 64.844 64.3895 64.394 63.9395C63.944 63.4895 63.2163 63.4831 62.7586 63.9253L61.0086 65.6753C60.5531 66.1309 60.5531 66.8694 61.0086 67.3249Z" fill="white"/>
<path d="M68.008 58.6751L66.2581 60.4251C65.9548 60.718 65.8331 61.1518 65.9399 61.5597C66.0467 61.9676 66.3652 62.2861 66.7731 62.3929C67.181 62.4997 67.6148 62.378 67.9077 62.0748L69.6577 60.3248C70.0998 59.867 70.0935 59.1393 69.6435 58.6893C69.1935 58.2393 68.4658 58.233 68.008 58.6751V58.6751Z" fill="white"/>
</g>
<defs>
<clipPath id="clip0_2_177">
<rect width="70" height="70" fill="white"/>
</clipPath>
</defs>
</svg>
