<svg width="70" height="70" viewBox="0 0 70 70" fill="none" xmlns="http://www.w3.org/2000/svg">
<g clip-path="url(#clip0_2_248)">
<path d="M69.9994 32.6673C70.0007 29.5908 68.6517 26.6689 66.3093 24.6745C67.2021 23.2183 67.672 21.5422 67.6661 19.8341C67.66 15.1016 64.1176 11.1203 59.4179 10.5639C59.4725 10.1563 59.4999 9.74551 59.4996 9.33426C59.5117 4.19124 55.3523 0.0122954 50.2093 0.000191411C47.183 -0.00695432 44.3419 1.45705 42.5913 3.92568C39.6205 -0.266971 33.8133 -1.25731 29.6207 1.71356C28.7638 2.3208 28.0158 3.06877 27.4086 3.92568C24.4212 -0.265513 18.602 -1.24142 14.4108 1.74579C11.5999 3.74922 10.1267 7.14228 10.582 10.5639C5.88226 11.1203 2.33988 15.1016 2.33375 19.8341C2.32792 21.5422 2.79778 23.2183 3.69056 24.6745C-0.723018 28.4358 -1.2518 35.063 2.50948 39.4766C2.87114 39.9011 3.26619 40.296 3.69056 40.6576C2.79735 42.1146 2.32748 43.7914 2.33375 45.5004C2.33958 50.6526 6.51473 54.8278 11.6669 54.8336H18.6668V67.6667H15.1669C14.5226 67.6667 14.0002 68.1891 14.0002 68.8334C14.0002 69.4777 14.5226 70 15.1669 70H54.833C55.4773 70 55.9996 69.4777 55.9996 68.8334C55.9996 68.1891 55.4773 67.6667 54.833 67.6667H51.333V54.8336H58.3329C63.4852 54.8278 67.6603 50.6526 67.6661 45.5004C67.672 43.7923 67.2021 42.1162 66.3093 40.66C68.6517 38.6656 70.0006 35.7436 69.9994 32.6673ZM11.6669 52.4898C7.80665 52.486 4.67667 49.3607 4.66705 45.5004C4.66253 43.9138 5.20327 42.3738 6.19886 41.1383C6.60092 40.6349 6.51881 39.9008 6.0154 39.4986C5.99105 39.479 5.96582 39.4605 5.93986 39.4432C2.19769 36.9255 1.20487 31.851 3.72235 28.1087C4.31137 27.2333 5.06429 26.4802 5.93986 25.8914C6.4739 25.531 6.61477 24.8058 6.25428 24.2718C6.23678 24.2458 6.21826 24.2207 6.19886 24.1962C5.20327 22.9607 4.66253 21.4208 4.66705 19.8341C4.67084 15.9697 7.80257 12.838 11.6669 12.8342L11.9691 12.8505C12.3464 12.8694 12.7085 12.7003 12.9363 12.3991C13.1681 12.1016 13.2408 11.7099 13.1311 11.3491C12.0382 7.64087 14.1585 3.74878 17.8668 2.65592C21.1633 1.6844 24.6774 3.24975 26.1602 6.34997C26.1602 6.36164 26.1602 6.37331 26.1521 6.38497C26.0067 6.82232 25.8942 7.27002 25.8161 7.72429C25.8021 7.80245 25.7916 7.88179 25.7799 7.95762C25.6403 8.8189 25.6297 9.69607 25.7484 10.5604C21.0474 11.1171 17.5046 15.1001 17.5002 19.8341C17.4944 21.5422 17.9642 23.2183 18.857 24.6745C18.836 24.6932 18.8185 24.713 18.7975 24.7317L13.3668 19.301C12.9033 18.8534 12.1647 18.8662 11.7171 19.3297C11.2805 19.7818 11.2805 20.4985 11.7171 20.9506L17.2144 26.4478C13.9444 30.8814 14.6619 37.0892 18.857 40.66C18.4068 41.3942 18.0627 42.1883 17.835 43.0189L13.6584 38.8423C13.195 38.3946 12.4565 38.4075 12.0088 38.8709C11.5722 39.323 11.5722 40.0398 12.0088 40.492L17.5259 46.0091C17.5352 46.1712 17.5375 46.3346 17.555 46.4932C17.5667 46.6029 17.5889 46.7079 17.604 46.8152C17.6344 47.0311 17.6647 47.2457 17.7102 47.4569C17.737 47.5829 17.7744 47.7042 17.8059 47.8279C17.8537 48.0145 17.9015 48.2024 17.961 48.3844C18.003 48.5139 18.0532 48.6375 18.101 48.7647C18.1652 48.935 18.2294 49.1065 18.304 49.2722C18.36 49.3982 18.4207 49.5207 18.4825 49.6432C18.5618 49.803 18.6435 49.9605 18.731 50.1098C18.7998 50.2265 18.8733 50.3432 18.948 50.4598C19.0413 50.608 19.137 50.7527 19.2385 50.8938C19.319 51.0105 19.403 51.119 19.4893 51.2287C19.5955 51.3663 19.7063 51.4982 19.8207 51.6288C19.9128 51.7338 20.0062 51.8376 20.1018 51.938C20.2185 52.064 20.348 52.1841 20.4763 52.3031C20.5405 52.3638 20.6 52.4315 20.6665 52.4898H11.6669V52.4898ZM33.8333 67.6667H21.0001V54.8336H33.8333V67.6667ZM34.9999 15.1675C34.3557 15.1675 33.8333 15.6899 33.8333 16.3342V24.601L28.5332 19.301C28.0698 18.8534 27.3311 18.8662 26.8836 19.3297C26.4469 19.7818 26.4469 20.4985 26.8836 20.9506L33.8333 27.9003V43.8508L28.8249 38.8423C28.3614 38.3946 27.6229 38.4075 27.1752 38.8709C26.7386 39.323 26.7386 40.0398 27.1752 40.492L33.8333 47.15V52.5003H26.8334C22.969 52.4965 19.8373 49.3648 19.8335 45.5004C19.829 43.9138 20.3697 42.3738 21.3653 41.1383C21.7674 40.6349 21.6853 39.9008 21.1819 39.4986C21.1575 39.479 21.1323 39.4605 21.1063 39.4432C17.3641 36.9255 16.3713 31.851 18.8888 28.1087C19.4778 27.2333 20.2307 26.4802 21.1063 25.8914C21.6403 25.531 21.7812 24.8058 21.4207 24.2718C21.4032 24.2458 21.3847 24.2207 21.3653 24.1962C20.3697 22.9607 19.829 21.4208 19.8335 19.8341C19.8373 15.9697 22.969 12.838 26.8334 12.8342L27.1356 12.8505C27.5133 12.8715 27.8762 12.7021 28.1027 12.3991C28.3346 12.1016 28.4072 11.7099 28.2975 11.3491C28.101 10.6955 28.0006 10.0168 28 9.33426C28.0006 8.90362 28.0418 8.47401 28.1225 8.05095C28.1225 8.03462 28.1225 8.01712 28.1295 8.00078C28.2141 7.57962 28.3363 7.16692 28.4947 6.76764C29.548 4.09499 32.1272 2.33728 34.9999 2.33437C37.8727 2.33728 40.4518 4.09499 41.5052 6.76764C41.664 7.16955 41.7862 7.58502 41.8703 8.00895C41.8703 8.02528 41.8703 8.04278 41.8773 8.05912C41.9577 8.4794 41.9987 8.9064 41.9998 9.33426C41.9993 10.0168 41.8989 10.6955 41.7023 11.3491C41.5927 11.7099 41.6653 12.1016 41.8972 12.3991C42.1245 12.7009 42.4869 12.8701 42.8643 12.8505L43.1665 12.8342C47.0309 12.838 50.1626 15.9697 50.1664 19.8341C50.1709 21.4208 49.6302 22.9607 48.6346 24.1962C48.2325 24.6996 48.3146 25.4337 48.818 25.8359C48.8424 25.8555 48.8676 25.874 48.8936 25.8914C52.6357 28.409 53.6286 33.4835 51.1109 37.2258C50.5219 38.1012 49.769 38.8543 48.8936 39.4432C48.3595 39.8035 48.2187 40.5287 48.5792 41.0628C48.5967 41.0887 48.6152 41.1138 48.6346 41.1383C49.6302 42.3738 50.1709 43.9138 50.1664 45.5004C50.1626 49.3648 47.0309 52.4965 43.1665 52.5003H36.1666V36.5697C36.2537 36.5267 36.3349 36.4726 36.4081 36.4087L43.9913 28.8255C44.439 28.362 44.4262 27.6235 43.9627 27.1758C43.5107 26.7392 42.7939 26.7392 42.3417 27.1758L36.1666 33.3509V16.3342C36.1666 15.6897 35.6442 15.1675 34.9999 15.1675ZM48.9997 67.6667H36.1666V54.8336H48.9997V67.6667ZM63.7455 41.0628C63.763 41.0887 63.7815 41.1138 63.8009 41.1383C64.7965 42.3738 65.3372 43.9138 65.3327 45.5004C65.3289 49.3648 62.1972 52.4965 58.3328 52.5003H49.3334C49.3999 52.442 49.4594 52.3743 49.5236 52.3136C49.6519 52.197 49.7767 52.0745 49.8981 51.9485C49.9937 51.8481 50.0871 51.7443 50.1792 51.6393C50.2959 51.5087 50.4044 51.3768 50.5105 51.2392C50.5969 51.1295 50.6809 51.0187 50.7614 50.9043C50.8629 50.7632 50.9585 50.6185 51.0519 50.4703C51.1265 50.3537 51.2 50.237 51.2689 50.1203C51.3564 49.9663 51.438 49.8088 51.5174 49.6537C51.578 49.5312 51.634 49.4087 51.6959 49.2827C51.7705 49.117 51.8347 48.9455 51.8989 48.7752C51.9467 48.648 51.9969 48.5244 52.0389 48.3949C52.0984 48.2129 52.1462 48.025 52.194 47.8384C52.2255 47.7147 52.2629 47.5934 52.2897 47.4674C52.3352 47.2562 52.3655 47.0415 52.3959 46.8257C52.411 46.7184 52.4332 46.6134 52.4449 46.5037C52.4812 46.1705 52.4995 45.8355 52.4997 45.5004C52.5055 43.7923 52.0357 42.1162 51.1429 40.66C53.3448 38.7792 54.6704 36.071 54.805 33.1783L59.1578 28.8255C59.6055 28.362 59.5926 27.6235 59.1292 27.1758C58.6771 26.7392 57.9603 26.7392 57.5081 27.1758L54.5203 30.1636C53.998 28.0268 52.8163 26.1084 51.1429 24.6804C52.0367 23.2225 52.5065 21.5443 52.4997 19.8341C52.4936 15.1016 48.9512 11.1203 44.2515 10.5639C44.369 9.69943 44.3572 8.8221 44.2165 7.96112C44.2048 7.88179 44.1943 7.80245 44.1803 7.72779C44.1021 7.27352 43.9897 6.82582 43.8443 6.38847C43.8443 6.37681 43.8443 6.36514 43.8361 6.35347C45.5043 2.86592 49.6837 1.39098 53.1712 3.05915C56.2715 4.54196 57.8367 8.0562 56.8653 11.3526C56.7556 11.7134 56.8282 12.1051 57.0601 12.4026C57.2879 12.7038 57.65 12.8729 58.0273 12.854L58.3329 12.8342C62.1973 12.838 65.329 15.9697 65.3328 19.8341C65.3374 21.4208 64.7966 22.9607 63.801 24.1962C63.399 24.6996 63.4811 25.4337 63.9845 25.8359C64.0088 25.8555 64.0341 25.874 64.06 25.8914C67.8022 28.409 68.795 33.4835 66.2774 37.2258C65.6884 38.1012 64.9354 38.8543 64.06 39.4432C63.5258 39.8035 63.3851 40.5287 63.7455 41.0628Z" fill="white"/>
</g>
<defs>
<clipPath id="clip0_2_248">
<rect width="70" height="70" fill="white"/>
</clipPath>
</defs>
</svg>
