<svg width="71" height="70" viewBox="0 0 71 70" fill="none" xmlns="http://www.w3.org/2000/svg">
<g clip-path="url(#clip0_2_264)">
<path d="M48.5597 40.9809C44.9312 37.4861 40.1399 35.5613 35.0687 35.5613C29.9965 35.5613 25.2047 37.4866 21.5761 40.9825C20.9067 41.6273 20.2796 42.324 19.7118 43.0528C18.3826 44.7608 18.5416 47.2116 20.0805 48.7586C20.0832 48.7613 20.0859 48.7639 20.0885 48.7666C20.9056 49.5837 21.9908 50.0337 23.1434 50.0337C24.4972 50.0337 25.7569 49.4194 26.5991 48.3476C26.8629 48.0116 27.1514 47.6868 27.4558 47.3828C29.4844 45.3543 32.1877 44.237 35.0687 44.237C37.9492 44.237 40.6531 45.3543 42.6816 47.3823C42.985 47.6862 43.2735 48.011 43.5383 48.3476C44.3806 49.4189 45.6397 50.0337 46.9935 50.0337H46.994C48.1466 50.0337 49.2318 49.5837 50.0484 48.7666C50.0516 48.7639 50.0543 48.7613 50.057 48.7586C51.5959 47.2116 51.7548 44.7608 50.4251 43.0528C49.8574 42.3234 49.2297 41.6267 48.5597 40.9809V40.9809ZM48.5961 47.3133C48.594 47.3154 48.5918 47.3175 48.5902 47.3197C48.1616 47.7451 47.5949 47.9795 46.9935 47.9795C46.2743 47.9795 45.6038 47.6509 45.1533 47.0778C44.8381 46.677 44.4951 46.2907 44.1339 45.93C41.7179 43.513 38.4982 42.1827 35.0687 42.1827C31.6387 42.1827 28.4195 43.5135 26.003 45.93C25.6408 46.2923 25.2983 46.6781 24.9837 47.0784C24.5336 47.6509 23.8632 47.9795 23.1434 47.9795C22.542 47.9795 21.9758 47.7451 21.5472 47.3197C21.5451 47.3181 21.5429 47.3159 21.5413 47.3138C20.7264 46.4988 20.637 45.2098 21.3332 44.3151C21.841 43.6633 22.4023 43.0399 23.0016 42.462C26.2454 39.337 30.5311 37.6161 35.0687 37.6161C39.6059 37.6161 43.891 39.3365 47.1342 42.461C47.7341 43.0389 48.2959 43.6628 48.8037 44.3151C49.5004 45.2098 49.4111 46.4988 48.5961 47.3133Z" fill="white"/>
<path d="M35.0683 48.8067C33.4154 48.8067 31.8609 49.4504 30.6923 50.6191C29.5236 51.7878 28.8799 53.3417 28.8799 54.9946C28.8799 56.6476 29.5236 58.202 30.6923 59.3707C31.8609 60.5394 33.4154 61.1831 35.0683 61.1831C36.7213 61.1831 38.2752 60.5394 39.4439 59.3707C41.8567 56.9579 41.8567 53.0319 39.4439 50.6191C38.2752 49.4504 36.7213 48.8067 35.0683 48.8067V48.8067ZM37.9911 57.9179C37.2104 58.6986 36.1723 59.1288 35.0683 59.1288C33.9639 59.1288 32.9258 58.6986 32.1451 57.9179C31.3644 57.1372 30.9341 56.0991 30.9341 54.9952C30.9341 53.8907 31.3644 52.8526 32.1451 52.0719C32.9258 51.2912 33.9639 50.861 35.0683 50.861C36.1723 50.861 37.2104 51.2912 37.9911 52.0719C39.6028 53.6836 39.6028 56.3062 37.9911 57.9179Z" fill="white"/>
<path d="M69.0026 23.9672C68.5429 23.4647 68.0635 22.9633 67.5776 22.4775C60.8915 15.794 52.4786 11.3794 43.2481 9.71152C34.2257 8.0816 25.03 9.1593 16.6551 12.8296C16.1355 13.0575 15.8984 13.6633 16.1264 14.1828C16.3544 14.7024 16.9601 14.9395 17.4797 14.7115C34.1305 7.41486 53.2251 11.0338 66.1248 23.9308C66.5893 24.3953 67.0478 24.8742 67.4872 25.3542C68.3096 26.2526 68.2732 27.6364 67.4048 28.5049C66.9569 28.9522 66.3608 29.193 65.7293 29.177C65.1049 29.163 64.5296 28.9035 64.1107 28.4449C63.7163 28.0142 63.3064 27.5856 62.8922 27.1714C55.4773 19.7565 45.5966 15.6736 35.0685 15.6736C35.068 15.6736 35.0664 15.6736 35.0658 15.6736C24.5366 15.6742 14.6549 19.7591 7.24102 27.1751C6.82685 27.5898 6.41803 28.0169 6.02633 28.4449C5.60681 28.9035 5.03211 29.1636 4.40765 29.177C3.77194 29.1919 3.18012 28.9522 2.73224 28.5049C1.86377 27.6364 1.82738 26.2526 2.6493 25.3547C3.08755 24.8758 3.54506 24.398 4.00846 23.9346C7.01306 20.9294 10.4056 18.3861 14.0903 16.3752C14.5885 16.1033 14.7721 15.4794 14.5002 14.9812C14.2284 14.4836 13.6045 14.2995 13.1063 14.5719C9.24872 16.6764 5.69885 19.338 2.55512 22.4818C2.07085 22.9666 1.59247 23.4663 1.13389 23.9672C-0.432357 25.6785 -0.36868 28.3096 1.27944 29.9577C2.10403 30.7817 3.19189 31.2323 4.3536 31.2323C4.38624 31.2323 4.41995 31.2318 4.45313 31.2312C5.64373 31.205 6.74069 30.7079 7.54228 29.8319C7.91364 29.4258 8.30105 29.0207 8.69382 28.6279C15.7197 21.5999 25.0856 17.729 35.0658 17.7284H35.0685C45.0471 17.7284 54.413 21.5978 61.4394 28.6242C61.8322 29.017 62.2212 29.4236 62.5947 29.8319C63.3963 30.7079 64.4933 31.205 65.6839 31.2312C66.8697 31.2569 68.0217 30.793 68.8576 29.9577C70.5051 28.3096 70.5694 25.6785 69.0026 23.9672V23.9672Z" fill="white"/>
<path d="M57.6286 31.3009C52.062 25.9948 44.7525 22.82 37.0459 22.3609C36.4787 22.3277 35.9928 22.759 35.9591 23.3252C35.9254 23.8919 36.3572 24.3783 36.9239 24.412C44.1462 24.8422 50.9955 27.8163 56.2112 32.7879C56.8715 33.4178 57.5099 34.0818 58.1081 34.7619C58.9059 35.6689 58.8637 37.0463 58.0118 37.8982C57.5607 38.3487 56.963 38.5858 56.3246 38.5654C55.6825 38.5446 55.0939 38.2669 54.6679 37.782C54.1992 37.2491 53.7015 36.7279 53.1894 36.2324C48.3195 31.5262 41.8843 28.9347 35.0693 28.9341H35.0687C28.2542 28.9341 21.819 31.5256 16.9491 36.2313C16.4354 36.7274 15.9377 37.2491 15.469 37.782C15.043 38.2669 14.455 38.5446 13.8123 38.5654C13.1755 38.5868 12.5762 38.3487 12.1251 37.8976C11.2743 37.0468 11.2261 35.6753 12.016 34.7764C12.4157 34.321 12.8347 33.8715 13.2617 33.4402C18.5656 28.0753 25.652 24.8695 33.2151 24.4136C33.7813 24.3793 34.2126 23.8924 34.1788 23.3262C34.1446 22.7601 33.6582 22.3272 33.0915 22.3625C25.0222 22.8489 17.4612 26.2704 11.8008 31.9954C11.346 32.4556 10.8992 32.9351 10.4722 33.4204C8.96961 35.1312 9.0579 37.736 10.6723 39.3504C11.4953 40.1729 12.5773 40.6208 13.7342 40.6208C13.7823 40.6208 13.8305 40.6202 13.8786 40.6186C15.0767 40.5801 16.2192 40.0407 17.0122 39.1385C17.444 38.6468 17.9032 38.1657 18.3767 37.7087C27.5816 28.8148 42.558 28.8153 51.7618 37.7098C52.2343 38.1663 52.6929 38.6468 53.1252 39.1385C53.9182 40.0407 55.0607 40.5801 56.2588 40.6186C57.4708 40.6577 58.6079 40.2071 59.4646 39.3504C61.0806 37.7344 61.1619 35.1226 59.6508 33.4044C59.013 32.6798 58.3328 31.9719 57.6286 31.3009V31.3009Z" fill="white"/>
</g>
<defs>
<clipPath id="clip0_2_264">
<rect width="70.1368" height="70" fill="white"/>
</clipPath>
</defs>
</svg>
